<mxfile host="app.diagrams.net" modified="2023-03-20T14:26:27.170Z" agent="5.0 (Windows NT 10.0; Win64; x64) AppleWebKit/537.36 (KHTML, like Gecko) Chrome/111.0.0.0 Safari/537.36" etag="R3XRSQmdejxanjDYNGmj" version="21.0.8" type="github">
  <diagram name="Page-1" id="c9db0220-8083-56f3-ca83-edcdcd058819">
    <mxGraphModel dx="1400" dy="831" grid="1" gridSize="10" guides="1" tooltips="1" connect="1" arrows="1" fold="1" page="1" pageScale="1.5" pageWidth="826" pageHeight="1169" background="none" math="0" shadow="0">
      <root>
        <mxCell id="0" style=";html=1;" />
        <mxCell id="1" style=";html=1;" parent="0" />
        <mxCell id="GOPRsWWLTEmbJ2inh4wm-1" value="" style="rounded=0;whiteSpace=wrap;html=1;fillColor=#333333;" parent="1" vertex="1">
          <mxGeometry x="80" y="1297" width="1220" height="690" as="geometry" />
        </mxCell>
        <mxCell id="GOPRsWWLTEmbJ2inh4wm-5" value="" style="rounded=1;whiteSpace=wrap;html=1;fontSize=16;arcSize=3;fillColor=#404040;rotation=0;strokeColor=#1A1A1A;" parent="1" vertex="1">
          <mxGeometry x="90" y="1307" width="260" height="670" as="geometry" />
        </mxCell>
        <mxCell id="GOPRsWWLTEmbJ2inh4wm-9" value="@Hpn4" style="text;html=1;align=left;verticalAlign=middle;whiteSpace=wrap;rounded=0;fontSize=16;fontColor=#FFFFFF;" parent="1" vertex="1">
          <mxGeometry x="237" y="1327" width="60" height="30" as="geometry" />
        </mxCell>
        <mxCell id="GOPRsWWLTEmbJ2inh4wm-11" value="Edit profile" style="text;html=1;strokeColor=none;fillColor=none;align=left;verticalAlign=middle;whiteSpace=wrap;rounded=0;fontSize=16;fontColor=#999999;" parent="1" vertex="1">
          <mxGeometry x="237" y="1357" width="100" height="30" as="geometry" />
        </mxCell>
        <mxCell id="GOPRsWWLTEmbJ2inh4wm-13" value="" style="whiteSpace=wrap;html=1;fontSize=16;fontColor=#B3B3B3;fillColor=#3D4FAD;strokeColor=none;" parent="1" vertex="1">
          <mxGeometry x="99.25" y="1425" width="240" height="1" as="geometry" />
        </mxCell>
        <mxCell id="GOPRsWWLTEmbJ2inh4wm-14" value="" style="rounded=1;whiteSpace=wrap;html=1;fontSize=16;arcSize=1;fillColor=#404040;strokeColor=#1A1A1A;" parent="1" vertex="1">
          <mxGeometry x="370" y="1307" width="920" height="670" as="geometry" />
        </mxCell>
        <mxCell id="GOPRsWWLTEmbJ2inh4wm-17" value="" style="shape=image;verticalLabelPosition=bottom;labelBackgroundColor=default;verticalAlign=top;aspect=fixed;imageAspect=0;image=http://cdn.onlinewebfonts.com/svg/img_432682.png;" parent="1" vertex="1">
          <mxGeometry x="101.5" y="1317" width="38.5" height="38.5" as="geometry" />
        </mxCell>
        <mxCell id="GOPRsWWLTEmbJ2inh4wm-18" value="" style="rounded=1;whiteSpace=wrap;html=1;fontSize=16;fillColor=#303030;strokeColor=none;" parent="1" vertex="1">
          <mxGeometry x="100" y="1445" width="240" height="45" as="geometry" />
        </mxCell>
        <mxCell id="GOPRsWWLTEmbJ2inh4wm-19" value="" style="shape=image;verticalLabelPosition=bottom;labelBackgroundColor=default;verticalAlign=top;aspect=fixed;imageAspect=0;image=https://cdn-icons-png.flaticon.com/512/3917/3917754.png;" parent="1" vertex="1">
          <mxGeometry x="310" y="1454" width="27" height="27" as="geometry" />
        </mxCell>
        <mxCell id="GOPRsWWLTEmbJ2inh4wm-20" value="" style="whiteSpace=wrap;html=1;fontSize=16;fontColor=#B3B3B3;fillColor=#3D4FAD;strokeColor=none;" parent="1" vertex="1">
          <mxGeometry x="99.25" y="1516" width="240" height="1" as="geometry" />
        </mxCell>
        <mxCell id="GOPRsWWLTEmbJ2inh4wm-31" value="" style="group" parent="1" vertex="1" connectable="0">
          <mxGeometry x="103.5" y="1367" width="36.5" height="44" as="geometry" />
        </mxCell>
        <mxCell id="GOPRsWWLTEmbJ2inh4wm-2" value="" style="shape=image;verticalLabelPosition=bottom;labelBackgroundColor=default;verticalAlign=top;aspect=fixed;imageAspect=0;image=https://cdn-icons-png.flaticon.com/512/565/565422.png;" parent="GOPRsWWLTEmbJ2inh4wm-31" vertex="1">
          <mxGeometry width="36.5" height="36.5" as="geometry" />
        </mxCell>
        <mxCell id="GOPRsWWLTEmbJ2inh4wm-3" value="" style="ellipse;whiteSpace=wrap;html=1;aspect=fixed;fillColor=#3D4FAD;strokeColor=none;" parent="GOPRsWWLTEmbJ2inh4wm-31" vertex="1">
          <mxGeometry x="18.879310344827584" width="12.586206896551724" height="12.586206896551724" as="geometry" />
        </mxCell>
        <mxCell id="GOPRsWWLTEmbJ2inh4wm-35" value="" style="whiteSpace=wrap;html=1;fontSize=16;fontColor=#B3B3B3;fillColor=#3D4FAD;strokeColor=none;" parent="1" vertex="1">
          <mxGeometry x="99.25" y="1731" width="240" height="1" as="geometry" />
        </mxCell>
        <mxCell id="GOPRsWWLTEmbJ2inh4wm-41" value="Search or paste URL..." style="text;html=1;align=left;verticalAlign=middle;whiteSpace=wrap;rounded=0;fontSize=16;fontColor=#999999;" parent="1" vertex="1">
          <mxGeometry x="103.5" y="1452.5" width="178" height="30" as="geometry" />
        </mxCell>
        <mxCell id="GOPRsWWLTEmbJ2inh4wm-42" value="" style="rounded=1;whiteSpace=wrap;html=1;fontSize=16;fillColor=#303030;strokeColor=none;arcSize=5;" parent="1" vertex="1">
          <mxGeometry x="380" y="1720" width="830" height="245" as="geometry" />
        </mxCell>
        <mxCell id="GOPRsWWLTEmbJ2inh4wm-43" value="Some text written&lt;br&gt;ffff&lt;br&gt;&lt;br&gt;d&lt;br&gt;d&lt;br&gt;d&lt;br&gt;&lt;br&gt;d" style="text;html=1;align=left;verticalAlign=middle;whiteSpace=wrap;rounded=0;fontSize=16;fontColor=#FFFFFF;" parent="1" vertex="1">
          <mxGeometry x="390" y="1743" width="410" height="160" as="geometry" />
        </mxCell>
        <mxCell id="GOPRsWWLTEmbJ2inh4wm-44" value="" style="rounded=0;whiteSpace=wrap;html=1;fontSize=16;fillColor=#1A1A1A;" parent="1" vertex="1">
          <mxGeometry x="80" y="1260" width="1220" height="37" as="geometry" />
        </mxCell>
        <mxCell id="GOPRsWWLTEmbJ2inh4wm-46" value="" style="rounded=0;whiteSpace=wrap;html=1;fontSize=16;fillColor=none;strokeColor=#FFFFFF;strokeWidth=2;" parent="1" vertex="1">
          <mxGeometry x="1194" y="1268.5" width="20" height="20" as="geometry" />
        </mxCell>
        <mxCell id="GOPRsWWLTEmbJ2inh4wm-47" value="" style="rounded=0;whiteSpace=wrap;html=1;fontSize=16;fillColor=none;strokeColor=#FFFFFF;" parent="1" vertex="1">
          <mxGeometry x="1147" y="1278" width="20" height="1" as="geometry" />
        </mxCell>
        <mxCell id="GOPRsWWLTEmbJ2inh4wm-54" value="" style="verticalLabelPosition=bottom;verticalAlign=top;html=1;shape=mxgraph.basic.rect;fillColor2=none;strokeWidth=1;size=20;indent=5;fontSize=16;fillColor=#FF3333;strokeColor=none;" parent="1" vertex="1">
          <mxGeometry x="1240" y="1260" width="60" height="37" as="geometry" />
        </mxCell>
        <mxCell id="GOPRsWWLTEmbJ2inh4wm-52" value="" style="rounded=0;whiteSpace=wrap;html=1;fontSize=16;fillColor=none;strokeColor=#FFFFFF;rotation=45;" parent="1" vertex="1">
          <mxGeometry x="1257.5" y="1278" width="25" height="1" as="geometry" />
        </mxCell>
        <mxCell id="GOPRsWWLTEmbJ2inh4wm-53" value="" style="rounded=0;whiteSpace=wrap;html=1;fontSize=16;fillColor=none;strokeColor=#FFFFFF;rotation=-45;" parent="1" vertex="1">
          <mxGeometry x="1257.5" y="1278" width="25" height="1" as="geometry" />
        </mxCell>
        <mxCell id="GOPRsWWLTEmbJ2inh4wm-61" value="" style="group" parent="1" vertex="1" connectable="0">
          <mxGeometry x="125.5" y="1921" width="182.5" height="38" as="geometry" />
        </mxCell>
        <mxCell id="GOPRsWWLTEmbJ2inh4wm-28" value="" style="shape=image;verticalLabelPosition=bottom;labelBackgroundColor=default;verticalAlign=top;aspect=fixed;imageAspect=0;image=https://cdn.iconscout.com/icon/free/png-256/bullet-point-3444944-2878318.png;" parent="GOPRsWWLTEmbJ2inh4wm-61" vertex="1">
          <mxGeometry y="8" width="22" height="22" as="geometry" />
        </mxCell>
        <mxCell id="GOPRsWWLTEmbJ2inh4wm-30" value="Lists" style="text;strokeColor=none;fillColor=none;html=1;align=left;verticalAlign=middle;whiteSpace=wrap;rounded=0;fontSize=16;fontColor=#999999;fontStyle=1" parent="GOPRsWWLTEmbJ2inh4wm-61" vertex="1">
          <mxGeometry x="52.5" width="130" height="38" as="geometry" />
        </mxCell>
        <mxCell id="GOPRsWWLTEmbJ2inh4wm-62" value="" style="group" parent="1" vertex="1" connectable="0">
          <mxGeometry x="122" y="1865" width="186" height="38" as="geometry" />
        </mxCell>
        <mxCell id="GOPRsWWLTEmbJ2inh4wm-24" value="" style="shape=image;verticalLabelPosition=bottom;labelBackgroundColor=default;verticalAlign=top;aspect=fixed;imageAspect=0;image=https://cdn-icons-png.flaticon.com/512/3916/3916593.png;" parent="GOPRsWWLTEmbJ2inh4wm-62" vertex="1">
          <mxGeometry y="4.5" width="29" height="29" as="geometry" />
        </mxCell>
        <mxCell id="GOPRsWWLTEmbJ2inh4wm-25" value="Bookmarks" style="text;strokeColor=none;fillColor=none;html=1;align=left;verticalAlign=middle;whiteSpace=wrap;rounded=0;fontSize=16;fontColor=#999999;fontStyle=1" parent="GOPRsWWLTEmbJ2inh4wm-62" vertex="1">
          <mxGeometry x="56" width="130" height="38" as="geometry" />
        </mxCell>
        <mxCell id="GOPRsWWLTEmbJ2inh4wm-63" value="" style="group" parent="1" vertex="1" connectable="0">
          <mxGeometry x="118" y="1809" width="190" height="38" as="geometry" />
        </mxCell>
        <mxCell id="GOPRsWWLTEmbJ2inh4wm-21" value="" style="shape=image;verticalLabelPosition=bottom;labelBackgroundColor=default;verticalAlign=top;aspect=fixed;imageAspect=0;image=https://www.iconpacks.net/icons/2/free-favourite-icon-2765-thumb.png;" parent="GOPRsWWLTEmbJ2inh4wm-63" vertex="1">
          <mxGeometry y="0.5" width="37" height="37" as="geometry" />
        </mxCell>
        <mxCell id="GOPRsWWLTEmbJ2inh4wm-22" value="Favourites" style="text;strokeColor=none;fillColor=none;html=1;align=left;verticalAlign=middle;whiteSpace=wrap;rounded=0;fontSize=16;fontColor=#999999;fontStyle=1" parent="GOPRsWWLTEmbJ2inh4wm-63" vertex="1">
          <mxGeometry x="60" width="130" height="38" as="geometry" />
        </mxCell>
        <mxCell id="GOPRsWWLTEmbJ2inh4wm-64" value="" style="group" parent="1" vertex="1" connectable="0">
          <mxGeometry x="119" y="1752" width="189" height="38" as="geometry" />
        </mxCell>
        <mxCell id="GOPRsWWLTEmbJ2inh4wm-15" value="" style="shape=image;verticalLabelPosition=bottom;labelBackgroundColor=default;verticalAlign=top;aspect=fixed;imageAspect=0;image=https://cdn-icons-png.flaticon.com/512/5167/5167053.png;" parent="GOPRsWWLTEmbJ2inh4wm-64" vertex="1">
          <mxGeometry y="1.5" width="35" height="35" as="geometry" />
        </mxCell>
        <mxCell id="GOPRsWWLTEmbJ2inh4wm-16" value="Direct message" style="text;strokeColor=none;fillColor=none;html=1;align=left;verticalAlign=middle;whiteSpace=wrap;rounded=0;fontSize=16;fontColor=#999999;fontStyle=1" parent="GOPRsWWLTEmbJ2inh4wm-64" vertex="1">
          <mxGeometry x="59" width="130" height="38" as="geometry" />
        </mxCell>
        <mxCell id="GOPRsWWLTEmbJ2inh4wm-65" value="" style="group" parent="1" vertex="1" connectable="0">
          <mxGeometry x="122.5" y="1676" width="185.5" height="38" as="geometry" />
        </mxCell>
        <mxCell id="GOPRsWWLTEmbJ2inh4wm-33" value="" style="shape=image;verticalLabelPosition=bottom;labelBackgroundColor=default;verticalAlign=top;aspect=fixed;imageAspect=0;image=https://cdn-icons-png.flaticon.com/512/6633/6633232.png;container=0;" parent="GOPRsWWLTEmbJ2inh4wm-65" vertex="1">
          <mxGeometry y="5" width="28" height="28" as="geometry" />
        </mxCell>
        <mxCell id="GOPRsWWLTEmbJ2inh4wm-34" value="Trending" style="text;strokeColor=none;fillColor=none;html=1;align=left;verticalAlign=middle;whiteSpace=wrap;rounded=0;fontSize=16;fontColor=#999999;fontStyle=1;container=0;" parent="GOPRsWWLTEmbJ2inh4wm-65" vertex="1">
          <mxGeometry x="55.5" width="130" height="38" as="geometry" />
        </mxCell>
        <mxCell id="GOPRsWWLTEmbJ2inh4wm-66" value="" style="group" parent="1" vertex="1" connectable="0">
          <mxGeometry x="118" y="1627" width="190" height="38" as="geometry" />
        </mxCell>
        <mxCell id="GOPRsWWLTEmbJ2inh4wm-55" value="" style="shape=image;verticalLabelPosition=bottom;labelBackgroundColor=default;verticalAlign=top;aspect=fixed;imageAspect=0;image=https://icons.veryicon.com/png/o/miscellaneous/forestry-in-yiliang/group-people.png;" parent="GOPRsWWLTEmbJ2inh4wm-66" vertex="1">
          <mxGeometry y="0.5" width="37" height="37" as="geometry" />
        </mxCell>
        <mxCell id="GOPRsWWLTEmbJ2inh4wm-56" value="Local timelines" style="text;strokeColor=none;fillColor=none;html=1;align=left;verticalAlign=middle;whiteSpace=wrap;rounded=0;fontSize=16;fontColor=#999999;fontStyle=1" parent="GOPRsWWLTEmbJ2inh4wm-66" vertex="1">
          <mxGeometry x="60" width="130" height="38" as="geometry" />
        </mxCell>
        <mxCell id="GOPRsWWLTEmbJ2inh4wm-67" value="" style="group" parent="1" vertex="1" connectable="0">
          <mxGeometry x="122" y="1577" width="186" height="38" as="geometry" />
        </mxCell>
        <mxCell id="GOPRsWWLTEmbJ2inh4wm-57" value="" style="shape=image;verticalLabelPosition=bottom;labelBackgroundColor=default;verticalAlign=top;aspect=fixed;imageAspect=0;image=https://uxwing.com/wp-content/themes/uxwing/download/location-travel-map/globe-line-icon.png;" parent="GOPRsWWLTEmbJ2inh4wm-67" vertex="1">
          <mxGeometry y="4.5" width="29" height="29" as="geometry" />
        </mxCell>
        <mxCell id="GOPRsWWLTEmbJ2inh4wm-59" value="Global timelines" style="text;strokeColor=none;fillColor=none;html=1;align=left;verticalAlign=middle;whiteSpace=wrap;rounded=0;fontSize=16;fontColor=#999999;fontStyle=1" parent="GOPRsWWLTEmbJ2inh4wm-67" vertex="1">
          <mxGeometry x="56" width="130" height="38" as="geometry" />
        </mxCell>
        <mxCell id="GOPRsWWLTEmbJ2inh4wm-68" value="" style="group" parent="1" vertex="1" connectable="0">
          <mxGeometry x="91" y="1524.75" width="217" height="44" as="geometry" />
        </mxCell>
        <mxCell id="GOPRsWWLTEmbJ2inh4wm-37" value="Home" style="text;strokeColor=none;fillColor=none;html=1;align=left;verticalAlign=middle;whiteSpace=wrap;rounded=0;fontSize=16;fontColor=#3D4FAD;fontStyle=1" parent="GOPRsWWLTEmbJ2inh4wm-68" vertex="1">
          <mxGeometry x="87" y="3" width="130" height="38" as="geometry" />
        </mxCell>
        <mxCell id="GOPRsWWLTEmbJ2inh4wm-38" value="" style="rounded=0;whiteSpace=wrap;html=1;fontSize=16;fillColor=#3D4FAD;strokeColor=none;" parent="GOPRsWWLTEmbJ2inh4wm-68" vertex="1">
          <mxGeometry width="8" height="44" as="geometry" />
        </mxCell>
        <mxCell id="GOPRsWWLTEmbJ2inh4wm-40" value="" style="shape=image;verticalLabelPosition=bottom;labelBackgroundColor=default;verticalAlign=top;aspect=fixed;imageAspect=0;image=data:image/svg+xml,PHN2ZyB4bWxucz0iaHR0cDovL3d3dy53My5vcmcvMjAwMC9zdmciIHZpZXdCb3g9IjAgMCA2NCA2NCIgZGF0YS1uYW1lPSJMYXllciAxIiBpZD0iTGF5ZXJfMSI+PHBhdGggZmlsbD0iIzNkNGZhZCIgZD0iTTQzLjc2LDUyLjZoLTlWNDMuNDlhMi44NCwyLjg0LDAsMCwwLTIuNTMtMy4wNmgtLjVhMi44NCwyLjg0LDAsMCwwLTIuNTMsMy4wNlY1Mi42aC05YTQuNjQsNC42NCwwLDAsMS00LjM2LTQuODdWMzcuMkgxMS42MUwzMiwxMy42bDYuMzQsNy4zNGEyLjg3LDIuODcsMCwwLDEsMi40MS0xLjQxLDMuMywzLjMsMCwwLDEsMywzLjUyVjI3LjJsOC42MywxMEg0OC4xMlY0Ny43M0E0LjY0LDQuNjQsMCwwLDEsNDMuNzYsNTIuNlptLTgtMWg4YTMuNjQsMy42NCwwLDAsMCwzLjM2LTMuODdWMzYuMmgwVjQ3LjczYTMuNjQsMy42NCwwLDAsMS0zLjM2LDMuODdabS0xOC45LTMuODdhMy42NCwzLjY0LDAsMCwwLDMuMzYsMy44N2g4VjQzLjQ5YTMuODMsMy44MywwLDAsMSwzLjUzLTQuMDZoLjVhMy44MywzLjgzLDAsMCwxLDMuNTMsNC4wNiwzLjgzLDMuODMsMCwwLDAtMy41My00LjA2aC0uNWEzLjgzLDMuODMsMCwwLDAtMy41Myw0LjA2VjUxLjZoLThBMy42NCwzLjY0LDAsMCwxLDE2Ljg4LDQ3LjczWm0xOS45LDIuODdoN2EyLjY2LDIuNjYsMCwwLDAsMi4zNi0yLjg3VjM1LjJINDhsLTYuMy03LjI5LDAtLjVWMjMuMDVjMC0uODctLjU0LTEuNTItMS0xLjUycy0xLC42Ny0xLDEuNDRsLS4xLDIuNTRMMzIsMTYuNjYsMTYsMzUuMmgxLjlWNDcuNzNhMi42NiwyLjY2LDAsMCwwLDIuMzYsMi44N2g3VjQzLjQ5YTQuODIsNC44MiwwLDAsMSw0LjUzLTUuMDZoLjVhNC44Miw0LjgyLDAsMCwxLDQuNTMsNS4wNlptLTIzLTE0LjRoMFptMjktOC42NHYwWk0zOC42MywyMi44bC4xMi4xM2EyLjgsMi44LDAsMCwxLC4xNi0uODhabTIuMTEtMi4yN1ptMCwwaDBaIi8+PC9zdmc+;" parent="GOPRsWWLTEmbJ2inh4wm-68" vertex="1">
          <mxGeometry x="26.875" y="3.375" width="37.25" height="37.25" as="geometry" />
        </mxCell>
        <mxCell id="GOPRsWWLTEmbJ2inh4wm-97" value="" style="group" parent="1" vertex="1" connectable="0">
          <mxGeometry x="153" y="1317" width="80" height="80" as="geometry" />
        </mxCell>
        <mxCell id="GOPRsWWLTEmbJ2inh4wm-7" value="" style="ellipse;whiteSpace=wrap;html=1;aspect=fixed;fontSize=16;fillColor=#3D4FAD;strokeColor=#1A1A1A;" parent="GOPRsWWLTEmbJ2inh4wm-97" vertex="1">
          <mxGeometry width="80" height="80" as="geometry" />
        </mxCell>
        <mxCell id="GOPRsWWLTEmbJ2inh4wm-8" value="" style="shape=image;verticalLabelPosition=bottom;labelBackgroundColor=default;verticalAlign=top;aspect=fixed;imageAspect=0;image=https://cdn-icons-png.flaticon.com/512/147/147144.png;" parent="GOPRsWWLTEmbJ2inh4wm-97" vertex="1">
          <mxGeometry x="2.5" y="2.5" width="75" height="75" as="geometry" />
        </mxCell>
        <mxCell id="GOPRsWWLTEmbJ2inh4wm-99" value="430" style="text;strokeColor=none;fillColor=none;html=1;align=center;verticalAlign=middle;whiteSpace=wrap;rounded=0;fontSize=10;fontColor=#999999;fontStyle=1" parent="1" vertex="1">
          <mxGeometry x="1180" y="1941.5" width="30" height="23" as="geometry" />
        </mxCell>
        <mxCell id="GOPRsWWLTEmbJ2inh4wm-100" value="" style="shape=image;verticalLabelPosition=bottom;labelBackgroundColor=default;verticalAlign=top;aspect=fixed;imageAspect=0;image=https://cdn-icons-png.flaticon.com/512/3682/3682321.png;" parent="1" vertex="1">
          <mxGeometry x="1229.5" y="1671" width="35" height="35" as="geometry" />
        </mxCell>
        <mxCell id="GOPRsWWLTEmbJ2inh4wm-105" value="" style="shape=image;verticalLabelPosition=bottom;labelBackgroundColor=default;verticalAlign=top;aspect=fixed;imageAspect=0;image=https://uxwing.com/wp-content/themes/uxwing/download/location-travel-map/globe-line-icon.png;" parent="1" vertex="1">
          <mxGeometry x="1232.5" y="1851" width="29" height="29" as="geometry" />
        </mxCell>
        <mxCell id="GOPRsWWLTEmbJ2inh4wm-107" value="" style="rounded=1;whiteSpace=wrap;html=1;fontSize=16;fillColor=#303030;strokeColor=none;arcSize=17;" parent="1" vertex="1">
          <mxGeometry x="379" y="1660" width="831" height="54" as="geometry" />
        </mxCell>
        <mxCell id="GOPRsWWLTEmbJ2inh4wm-108" value="Warning content !" style="text;html=1;align=left;verticalAlign=middle;whiteSpace=wrap;rounded=0;fontSize=16;fontColor=#FFFFFF;" parent="1" vertex="1">
          <mxGeometry x="390" y="1672" width="178" height="30" as="geometry" />
        </mxCell>
        <mxCell id="GOPRsWWLTEmbJ2inh4wm-95" value="CW" style="text;strokeColor=none;fillColor=none;html=1;align=center;verticalAlign=middle;whiteSpace=wrap;rounded=0;fontSize=20;fontColor=#3D4FAD;fontStyle=1" parent="1" vertex="1">
          <mxGeometry x="1227" y="1888" width="40" height="38" as="geometry" />
        </mxCell>
        <mxCell id="GOPRsWWLTEmbJ2inh4wm-111" style="edgeStyle=none;curved=1;rounded=0;orthogonalLoop=1;jettySize=auto;html=1;entryX=1;entryY=0.5;entryDx=0;entryDy=0;fontSize=12;startSize=8;endSize=8;" parent="1" source="GOPRsWWLTEmbJ2inh4wm-110" target="GOPRsWWLTEmbJ2inh4wm-98" edge="1">
          <mxGeometry relative="1" as="geometry" />
        </mxCell>
        <mxCell id="GOPRsWWLTEmbJ2inh4wm-110" value="Mouse on text" style="rounded=0;whiteSpace=wrap;html=1;fontSize=16;" parent="1" vertex="1">
          <mxGeometry x="1340" y="1929" width="120" height="60" as="geometry" />
        </mxCell>
        <mxCell id="GOPRsWWLTEmbJ2inh4wm-113" style="edgeStyle=none;curved=1;rounded=0;orthogonalLoop=1;jettySize=auto;html=1;entryX=1;entryY=0.5;entryDx=0;entryDy=0;fontSize=12;startSize=8;endSize=8;" parent="1" source="GOPRsWWLTEmbJ2inh4wm-112" target="GOPRsWWLTEmbJ2inh4wm-95" edge="1">
          <mxGeometry relative="1" as="geometry" />
        </mxCell>
        <mxCell id="GOPRsWWLTEmbJ2inh4wm-112" value="Selected content" style="rounded=0;whiteSpace=wrap;html=1;fontSize=16;" parent="1" vertex="1">
          <mxGeometry x="1340" y="1835.5" width="130" height="60" as="geometry" />
        </mxCell>
        <mxCell id="GOPRsWWLTEmbJ2inh4wm-115" style="edgeStyle=none;curved=1;rounded=0;orthogonalLoop=1;jettySize=auto;html=1;entryX=1;entryY=0.5;entryDx=0;entryDy=0;fontSize=12;startSize=8;endSize=8;" parent="1" source="GOPRsWWLTEmbJ2inh4wm-114" target="GOPRsWWLTEmbJ2inh4wm-100" edge="1">
          <mxGeometry relative="1" as="geometry" />
        </mxCell>
        <mxCell id="GOPRsWWLTEmbJ2inh4wm-114" value="Long click will show schedule information" style="rounded=0;whiteSpace=wrap;html=1;fontSize=16;" parent="1" vertex="1">
          <mxGeometry x="1350" y="1630" width="170" height="60" as="geometry" />
        </mxCell>
        <mxCell id="GOPRsWWLTEmbJ2inh4wm-116" value="" style="rounded=1;whiteSpace=wrap;html=1;fontSize=16;strokeColor=none;fillColor=#4D4D4D;arcSize=50;" parent="1" vertex="1">
          <mxGeometry x="1201.5" y="1735" width="3.5" height="154" as="geometry" />
        </mxCell>
        <mxCell id="GOPRsWWLTEmbJ2inh4wm-117" value="" style="rounded=1;whiteSpace=wrap;html=1;fontSize=16;fillColor=#404040;strokeColor=#4D4D4D;arcSize=6;" parent="1" vertex="1">
          <mxGeometry x="390" y="1919" width="630" height="39" as="geometry" />
        </mxCell>
        <mxCell id="GOPRsWWLTEmbJ2inh4wm-118" value="" style="shape=image;verticalLabelPosition=bottom;labelBackgroundColor=default;verticalAlign=top;aspect=fixed;imageAspect=0;image=https://icon-library.com/images/upload-icon-png/upload-icon-png-7.jpg;" parent="1" vertex="1">
          <mxGeometry x="385" y="1913.25" width="50.75" height="50.75" as="geometry" />
        </mxCell>
        <mxCell id="GOPRsWWLTEmbJ2inh4wm-119" value="Uploaded file name" style="text;strokeColor=none;fillColor=none;html=1;align=left;verticalAlign=middle;whiteSpace=wrap;rounded=0;fontSize=16;fontColor=#999999;" parent="1" vertex="1">
          <mxGeometry x="431" y="1923.5" width="179" height="30" as="geometry" />
        </mxCell>
        <mxCell id="GOPRsWWLTEmbJ2inh4wm-120" value="" style="shape=image;verticalLabelPosition=bottom;labelBackgroundColor=default;verticalAlign=top;aspect=fixed;imageAspect=0;image=https://cdn-icons-png.flaticon.com/512/1345/1345874.png;" parent="1" vertex="1">
          <mxGeometry x="982" y="1924.13" width="29" height="29" as="geometry" />
        </mxCell>
        <mxCell id="GOPRsWWLTEmbJ2inh4wm-121" value="" style="shape=image;verticalLabelPosition=bottom;labelBackgroundColor=default;verticalAlign=top;aspect=fixed;imageAspect=0;image=https://cdn-icons-png.flaticon.com/512/61/61456.png;" parent="1" vertex="1">
          <mxGeometry x="944" y="1924.38" width="28.5" height="28.5" as="geometry" />
        </mxCell>
        <mxCell id="GOPRsWWLTEmbJ2inh4wm-122" value="" style="shape=image;verticalLabelPosition=bottom;labelBackgroundColor=default;verticalAlign=top;aspect=fixed;imageAspect=0;image=https://www.freeiconspng.com/thumbs/eye-icon/eyeball-icon-png-eye-icon-1.png;" parent="1" vertex="1">
          <mxGeometry x="894" y="1918.63" width="40" height="40" as="geometry" />
        </mxCell>
        <mxCell id="GOPRsWWLTEmbJ2inh4wm-124" style="edgeStyle=none;curved=1;rounded=0;orthogonalLoop=1;jettySize=auto;html=1;entryX=0.5;entryY=1;entryDx=0;entryDy=0;fontSize=12;startSize=8;endSize=8;" parent="1" source="GOPRsWWLTEmbJ2inh4wm-123" target="GOPRsWWLTEmbJ2inh4wm-120" edge="1">
          <mxGeometry relative="1" as="geometry" />
        </mxCell>
        <mxCell id="GOPRsWWLTEmbJ2inh4wm-123" value="Remove the attachment" style="rounded=0;whiteSpace=wrap;html=1;fontSize=16;" parent="1" vertex="1">
          <mxGeometry x="998" y="2109" width="120" height="60" as="geometry" />
        </mxCell>
        <mxCell id="GOPRsWWLTEmbJ2inh4wm-126" style="edgeStyle=none;curved=1;rounded=0;orthogonalLoop=1;jettySize=auto;html=1;entryX=0.5;entryY=1;entryDx=0;entryDy=0;fontSize=12;startSize=8;endSize=8;" parent="1" source="GOPRsWWLTEmbJ2inh4wm-125" target="GOPRsWWLTEmbJ2inh4wm-121" edge="1">
          <mxGeometry relative="1" as="geometry" />
        </mxCell>
        <mxCell id="GOPRsWWLTEmbJ2inh4wm-125" value="Edit the attachment (description text)" style="rounded=0;whiteSpace=wrap;html=1;fontSize=16;" parent="1" vertex="1">
          <mxGeometry x="827.5" y="2109" width="149" height="67" as="geometry" />
        </mxCell>
        <mxCell id="GOPRsWWLTEmbJ2inh4wm-128" style="edgeStyle=none;curved=1;rounded=0;orthogonalLoop=1;jettySize=auto;html=1;entryX=0.5;entryY=0.719;entryDx=0;entryDy=0;fontSize=12;startSize=8;endSize=8;entryPerimeter=0;" parent="1" source="GOPRsWWLTEmbJ2inh4wm-127" target="GOPRsWWLTEmbJ2inh4wm-122" edge="1">
          <mxGeometry relative="1" as="geometry" />
        </mxCell>
        <mxCell id="GOPRsWWLTEmbJ2inh4wm-127" value="If the attachement is sensitive or not" style="rounded=0;whiteSpace=wrap;html=1;fontSize=16;" parent="1" vertex="1">
          <mxGeometry x="647.5" y="2099" width="160" height="77" as="geometry" />
        </mxCell>
        <mxCell id="GOPRsWWLTEmbJ2inh4wm-129" value="" style="rounded=0;whiteSpace=wrap;html=1;fillColor=#333333;" parent="1" vertex="1">
          <mxGeometry x="80" y="297" width="1220" height="690" as="geometry" />
        </mxCell>
        <mxCell id="GOPRsWWLTEmbJ2inh4wm-130" value="" style="rounded=1;whiteSpace=wrap;html=1;fontSize=16;arcSize=3;fillColor=#404040;rotation=0;strokeColor=#1A1A1A;" parent="1" vertex="1">
          <mxGeometry x="90" y="307" width="260" height="670" as="geometry" />
        </mxCell>
        <mxCell id="GOPRsWWLTEmbJ2inh4wm-131" value="@Hpn4" style="text;html=1;align=left;verticalAlign=middle;whiteSpace=wrap;rounded=0;fontSize=16;fontColor=#FFFFFF;" parent="1" vertex="1">
          <mxGeometry x="237" y="327" width="60" height="30" as="geometry" />
        </mxCell>
        <mxCell id="GOPRsWWLTEmbJ2inh4wm-132" value="Edit profile" style="text;html=1;strokeColor=none;fillColor=none;align=left;verticalAlign=middle;whiteSpace=wrap;rounded=0;fontSize=16;fontColor=#999999;" parent="1" vertex="1">
          <mxGeometry x="237" y="357" width="100" height="30" as="geometry" />
        </mxCell>
        <mxCell id="GOPRsWWLTEmbJ2inh4wm-133" value="" style="whiteSpace=wrap;html=1;fontSize=16;fontColor=#B3B3B3;fillColor=#3D4FAD;strokeColor=none;" parent="1" vertex="1">
          <mxGeometry x="99.25" y="425" width="240" height="1" as="geometry" />
        </mxCell>
        <mxCell id="GOPRsWWLTEmbJ2inh4wm-134" value="" style="rounded=1;whiteSpace=wrap;html=1;fontSize=16;arcSize=1;fillColor=#404040;strokeColor=#1A1A1A;" parent="1" vertex="1">
          <mxGeometry x="370" y="307" width="920" height="670" as="geometry" />
        </mxCell>
        <mxCell id="GOPRsWWLTEmbJ2inh4wm-266" value="" style="rounded=0;whiteSpace=wrap;html=1;labelBackgroundColor=default;comic=0;strokeColor=none;fontFamily=Helvetica;fontSize=12;fontColor=default;fillColor=#383838;" parent="1" vertex="1">
          <mxGeometry x="370" y="420" width="920" height="430" as="geometry" />
        </mxCell>
        <mxCell id="GOPRsWWLTEmbJ2inh4wm-135" value="" style="shape=image;verticalLabelPosition=bottom;labelBackgroundColor=default;verticalAlign=top;aspect=fixed;imageAspect=0;image=http://cdn.onlinewebfonts.com/svg/img_432682.png;" parent="1" vertex="1">
          <mxGeometry x="101.5" y="317" width="38.5" height="38.5" as="geometry" />
        </mxCell>
        <mxCell id="GOPRsWWLTEmbJ2inh4wm-136" value="" style="rounded=1;whiteSpace=wrap;html=1;fontSize=16;fillColor=#303030;strokeColor=none;" parent="1" vertex="1">
          <mxGeometry x="100" y="445" width="240" height="45" as="geometry" />
        </mxCell>
        <mxCell id="GOPRsWWLTEmbJ2inh4wm-137" value="" style="shape=image;verticalLabelPosition=bottom;labelBackgroundColor=default;verticalAlign=top;aspect=fixed;imageAspect=0;image=https://cdn-icons-png.flaticon.com/512/3917/3917754.png;" parent="1" vertex="1">
          <mxGeometry x="310" y="454" width="27" height="27" as="geometry" />
        </mxCell>
        <mxCell id="GOPRsWWLTEmbJ2inh4wm-139" value="" style="whiteSpace=wrap;html=1;fontSize=16;fontColor=#B3B3B3;fillColor=#3D4FAD;strokeColor=none;" parent="1" vertex="1">
          <mxGeometry x="99.25" y="516" width="240" height="1" as="geometry" />
        </mxCell>
        <mxCell id="GOPRsWWLTEmbJ2inh4wm-140" value="" style="group" parent="1" vertex="1" connectable="0">
          <mxGeometry x="103.5" y="367" width="36.5" height="44" as="geometry" />
        </mxCell>
        <mxCell id="GOPRsWWLTEmbJ2inh4wm-141" value="" style="shape=image;verticalLabelPosition=bottom;labelBackgroundColor=default;verticalAlign=top;aspect=fixed;imageAspect=0;image=https://cdn-icons-png.flaticon.com/512/565/565422.png;" parent="GOPRsWWLTEmbJ2inh4wm-140" vertex="1">
          <mxGeometry width="36.5" height="36.5" as="geometry" />
        </mxCell>
        <mxCell id="GOPRsWWLTEmbJ2inh4wm-142" value="" style="ellipse;whiteSpace=wrap;html=1;aspect=fixed;fillColor=#3D4FAD;strokeColor=none;" parent="GOPRsWWLTEmbJ2inh4wm-140" vertex="1">
          <mxGeometry x="18.879310344827584" width="12.586206896551724" height="12.586206896551724" as="geometry" />
        </mxCell>
        <mxCell id="GOPRsWWLTEmbJ2inh4wm-143" value="" style="whiteSpace=wrap;html=1;fontSize=16;fontColor=#B3B3B3;fillColor=#3D4FAD;strokeColor=none;" parent="1" vertex="1">
          <mxGeometry x="99.25" y="731" width="240" height="1" as="geometry" />
        </mxCell>
        <mxCell id="GOPRsWWLTEmbJ2inh4wm-144" value="Search or paste URL..." style="text;html=1;align=left;verticalAlign=middle;whiteSpace=wrap;rounded=0;fontSize=16;fontColor=#999999;" parent="1" vertex="1">
          <mxGeometry x="103.5" y="452.5" width="178" height="30" as="geometry" />
        </mxCell>
        <mxCell id="GOPRsWWLTEmbJ2inh4wm-147" value="" style="rounded=0;whiteSpace=wrap;html=1;fontSize=16;fillColor=#1A1A1A;" parent="1" vertex="1">
          <mxGeometry x="80" y="260" width="1220" height="37" as="geometry" />
        </mxCell>
        <mxCell id="GOPRsWWLTEmbJ2inh4wm-148" value="" style="rounded=0;whiteSpace=wrap;html=1;fontSize=16;fillColor=none;strokeColor=#FFFFFF;strokeWidth=2;" parent="1" vertex="1">
          <mxGeometry x="1194" y="268.5" width="20" height="20" as="geometry" />
        </mxCell>
        <mxCell id="GOPRsWWLTEmbJ2inh4wm-149" value="" style="rounded=0;whiteSpace=wrap;html=1;fontSize=16;fillColor=none;strokeColor=#FFFFFF;" parent="1" vertex="1">
          <mxGeometry x="1147" y="278" width="20" height="1" as="geometry" />
        </mxCell>
        <mxCell id="GOPRsWWLTEmbJ2inh4wm-150" value="" style="verticalLabelPosition=bottom;verticalAlign=top;html=1;shape=mxgraph.basic.rect;fillColor2=none;strokeWidth=1;size=20;indent=5;fontSize=16;fillColor=#FF3333;strokeColor=none;" parent="1" vertex="1">
          <mxGeometry x="1240" y="260" width="60" height="37" as="geometry" />
        </mxCell>
        <mxCell id="GOPRsWWLTEmbJ2inh4wm-151" value="" style="rounded=0;whiteSpace=wrap;html=1;fontSize=16;fillColor=none;strokeColor=#FFFFFF;rotation=45;" parent="1" vertex="1">
          <mxGeometry x="1257.5" y="278" width="25" height="1" as="geometry" />
        </mxCell>
        <mxCell id="GOPRsWWLTEmbJ2inh4wm-152" value="" style="rounded=0;whiteSpace=wrap;html=1;fontSize=16;fillColor=none;strokeColor=#FFFFFF;rotation=-45;" parent="1" vertex="1">
          <mxGeometry x="1257.5" y="278" width="25" height="1" as="geometry" />
        </mxCell>
        <mxCell id="GOPRsWWLTEmbJ2inh4wm-153" value="" style="group" parent="1" vertex="1" connectable="0">
          <mxGeometry x="125.5" y="921" width="182.5" height="38" as="geometry" />
        </mxCell>
        <mxCell id="GOPRsWWLTEmbJ2inh4wm-154" value="" style="shape=image;verticalLabelPosition=bottom;labelBackgroundColor=default;verticalAlign=top;aspect=fixed;imageAspect=0;image=https://cdn.iconscout.com/icon/free/png-256/bullet-point-3444944-2878318.png;" parent="GOPRsWWLTEmbJ2inh4wm-153" vertex="1">
          <mxGeometry y="8" width="22" height="22" as="geometry" />
        </mxCell>
        <mxCell id="GOPRsWWLTEmbJ2inh4wm-155" value="Lists" style="text;strokeColor=none;fillColor=none;html=1;align=left;verticalAlign=middle;whiteSpace=wrap;rounded=0;fontSize=16;fontColor=#999999;fontStyle=1" parent="GOPRsWWLTEmbJ2inh4wm-153" vertex="1">
          <mxGeometry x="52.5" width="130" height="38" as="geometry" />
        </mxCell>
        <mxCell id="GOPRsWWLTEmbJ2inh4wm-156" value="" style="group" parent="1" vertex="1" connectable="0">
          <mxGeometry x="122" y="865" width="186" height="38" as="geometry" />
        </mxCell>
        <mxCell id="GOPRsWWLTEmbJ2inh4wm-157" value="" style="shape=image;verticalLabelPosition=bottom;labelBackgroundColor=default;verticalAlign=top;aspect=fixed;imageAspect=0;image=https://cdn-icons-png.flaticon.com/512/3916/3916593.png;" parent="GOPRsWWLTEmbJ2inh4wm-156" vertex="1">
          <mxGeometry y="4.5" width="29" height="29" as="geometry" />
        </mxCell>
        <mxCell id="GOPRsWWLTEmbJ2inh4wm-158" value="Bookmarks" style="text;strokeColor=none;fillColor=none;html=1;align=left;verticalAlign=middle;whiteSpace=wrap;rounded=0;fontSize=16;fontColor=#999999;fontStyle=1" parent="GOPRsWWLTEmbJ2inh4wm-156" vertex="1">
          <mxGeometry x="56" width="130" height="38" as="geometry" />
        </mxCell>
        <mxCell id="GOPRsWWLTEmbJ2inh4wm-159" value="" style="group" parent="1" vertex="1" connectable="0">
          <mxGeometry x="118" y="809" width="190" height="38" as="geometry" />
        </mxCell>
        <mxCell id="GOPRsWWLTEmbJ2inh4wm-160" value="" style="shape=image;verticalLabelPosition=bottom;labelBackgroundColor=default;verticalAlign=top;aspect=fixed;imageAspect=0;image=https://www.iconpacks.net/icons/2/free-favourite-icon-2765-thumb.png;" parent="GOPRsWWLTEmbJ2inh4wm-159" vertex="1">
          <mxGeometry y="0.5" width="37" height="37" as="geometry" />
        </mxCell>
        <mxCell id="GOPRsWWLTEmbJ2inh4wm-161" value="Favourites" style="text;strokeColor=none;fillColor=none;html=1;align=left;verticalAlign=middle;whiteSpace=wrap;rounded=0;fontSize=16;fontColor=#999999;fontStyle=1" parent="GOPRsWWLTEmbJ2inh4wm-159" vertex="1">
          <mxGeometry x="60" width="130" height="38" as="geometry" />
        </mxCell>
        <mxCell id="GOPRsWWLTEmbJ2inh4wm-162" value="" style="group" parent="1" vertex="1" connectable="0">
          <mxGeometry x="119" y="752" width="189" height="38" as="geometry" />
        </mxCell>
        <mxCell id="GOPRsWWLTEmbJ2inh4wm-163" value="" style="shape=image;verticalLabelPosition=bottom;labelBackgroundColor=default;verticalAlign=top;aspect=fixed;imageAspect=0;image=https://cdn-icons-png.flaticon.com/512/5167/5167053.png;" parent="GOPRsWWLTEmbJ2inh4wm-162" vertex="1">
          <mxGeometry y="1.5" width="35" height="35" as="geometry" />
        </mxCell>
        <mxCell id="GOPRsWWLTEmbJ2inh4wm-164" value="Direct message" style="text;strokeColor=none;fillColor=none;html=1;align=left;verticalAlign=middle;whiteSpace=wrap;rounded=0;fontSize=16;fontColor=#999999;fontStyle=1" parent="GOPRsWWLTEmbJ2inh4wm-162" vertex="1">
          <mxGeometry x="59" width="130" height="38" as="geometry" />
        </mxCell>
        <mxCell id="GOPRsWWLTEmbJ2inh4wm-165" value="" style="group" parent="1" vertex="1" connectable="0">
          <mxGeometry x="122.5" y="676" width="185.5" height="38" as="geometry" />
        </mxCell>
        <mxCell id="GOPRsWWLTEmbJ2inh4wm-166" value="" style="shape=image;verticalLabelPosition=bottom;labelBackgroundColor=default;verticalAlign=top;aspect=fixed;imageAspect=0;image=https://cdn-icons-png.flaticon.com/512/6633/6633232.png;container=0;" parent="GOPRsWWLTEmbJ2inh4wm-165" vertex="1">
          <mxGeometry y="5" width="28" height="28" as="geometry" />
        </mxCell>
        <mxCell id="GOPRsWWLTEmbJ2inh4wm-167" value="Trending" style="text;strokeColor=none;fillColor=none;html=1;align=left;verticalAlign=middle;whiteSpace=wrap;rounded=0;fontSize=16;fontColor=#999999;fontStyle=1;container=0;" parent="GOPRsWWLTEmbJ2inh4wm-165" vertex="1">
          <mxGeometry x="55.5" width="130" height="38" as="geometry" />
        </mxCell>
        <mxCell id="GOPRsWWLTEmbJ2inh4wm-168" value="" style="group" parent="1" vertex="1" connectable="0">
          <mxGeometry x="118" y="627" width="190" height="38" as="geometry" />
        </mxCell>
        <mxCell id="GOPRsWWLTEmbJ2inh4wm-169" value="" style="shape=image;verticalLabelPosition=bottom;labelBackgroundColor=default;verticalAlign=top;aspect=fixed;imageAspect=0;image=https://icons.veryicon.com/png/o/miscellaneous/forestry-in-yiliang/group-people.png;" parent="GOPRsWWLTEmbJ2inh4wm-168" vertex="1">
          <mxGeometry y="0.5" width="37" height="37" as="geometry" />
        </mxCell>
        <mxCell id="GOPRsWWLTEmbJ2inh4wm-170" value="Local timelines" style="text;strokeColor=none;fillColor=none;html=1;align=left;verticalAlign=middle;whiteSpace=wrap;rounded=0;fontSize=16;fontColor=#999999;fontStyle=1" parent="GOPRsWWLTEmbJ2inh4wm-168" vertex="1">
          <mxGeometry x="60" width="130" height="38" as="geometry" />
        </mxCell>
        <mxCell id="GOPRsWWLTEmbJ2inh4wm-171" value="" style="group" parent="1" vertex="1" connectable="0">
          <mxGeometry x="122" y="577" width="186" height="38" as="geometry" />
        </mxCell>
        <mxCell id="GOPRsWWLTEmbJ2inh4wm-172" value="" style="shape=image;verticalLabelPosition=bottom;labelBackgroundColor=default;verticalAlign=top;aspect=fixed;imageAspect=0;image=https://uxwing.com/wp-content/themes/uxwing/download/location-travel-map/globe-line-icon.png;" parent="GOPRsWWLTEmbJ2inh4wm-171" vertex="1">
          <mxGeometry y="4.5" width="29" height="29" as="geometry" />
        </mxCell>
        <mxCell id="GOPRsWWLTEmbJ2inh4wm-173" value="Global timelines" style="text;strokeColor=none;fillColor=none;html=1;align=left;verticalAlign=middle;whiteSpace=wrap;rounded=0;fontSize=16;fontColor=#999999;fontStyle=1" parent="GOPRsWWLTEmbJ2inh4wm-171" vertex="1">
          <mxGeometry x="56" width="130" height="38" as="geometry" />
        </mxCell>
        <mxCell id="GOPRsWWLTEmbJ2inh4wm-174" value="" style="group" parent="1" vertex="1" connectable="0">
          <mxGeometry x="91" y="524.75" width="217" height="44" as="geometry" />
        </mxCell>
        <mxCell id="GOPRsWWLTEmbJ2inh4wm-175" value="Home" style="text;strokeColor=none;fillColor=none;html=1;align=left;verticalAlign=middle;whiteSpace=wrap;rounded=0;fontSize=16;fontColor=#3D4FAD;fontStyle=1" parent="GOPRsWWLTEmbJ2inh4wm-174" vertex="1">
          <mxGeometry x="87" y="3" width="130" height="38" as="geometry" />
        </mxCell>
        <mxCell id="GOPRsWWLTEmbJ2inh4wm-176" value="" style="rounded=0;whiteSpace=wrap;html=1;fontSize=16;fillColor=#3D4FAD;strokeColor=none;" parent="GOPRsWWLTEmbJ2inh4wm-174" vertex="1">
          <mxGeometry width="8" height="44" as="geometry" />
        </mxCell>
        <mxCell id="GOPRsWWLTEmbJ2inh4wm-177" value="" style="shape=image;verticalLabelPosition=bottom;labelBackgroundColor=default;verticalAlign=top;aspect=fixed;imageAspect=0;image=data:image/svg+xml,PHN2ZyB4bWxucz0iaHR0cDovL3d3dy53My5vcmcvMjAwMC9zdmciIHZpZXdCb3g9IjAgMCA2NCA2NCIgZGF0YS1uYW1lPSJMYXllciAxIiBpZD0iTGF5ZXJfMSI+PHBhdGggZmlsbD0iIzNkNGZhZCIgZD0iTTQzLjc2LDUyLjZoLTlWNDMuNDlhMi44NCwyLjg0LDAsMCwwLTIuNTMtMy4wNmgtLjVhMi44NCwyLjg0LDAsMCwwLTIuNTMsMy4wNlY1Mi42aC05YTQuNjQsNC42NCwwLDAsMS00LjM2LTQuODdWMzcuMkgxMS42MUwzMiwxMy42bDYuMzQsNy4zNGEyLjg3LDIuODcsMCwwLDEsMi40MS0xLjQxLDMuMywzLjMsMCwwLDEsMywzLjUyVjI3LjJsOC42MywxMEg0OC4xMlY0Ny43M0E0LjY0LDQuNjQsMCwwLDEsNDMuNzYsNTIuNlptLTgtMWg4YTMuNjQsMy42NCwwLDAsMCwzLjM2LTMuODdWMzYuMmgwVjQ3LjczYTMuNjQsMy42NCwwLDAsMS0zLjM2LDMuODdabS0xOC45LTMuODdhMy42NCwzLjY0LDAsMCwwLDMuMzYsMy44N2g4VjQzLjQ5YTMuODMsMy44MywwLDAsMSwzLjUzLTQuMDZoLjVhMy44MywzLjgzLDAsMCwxLDMuNTMsNC4wNiwzLjgzLDMuODMsMCwwLDAtMy41My00LjA2aC0uNWEzLjgzLDMuODMsMCwwLDAtMy41Myw0LjA2VjUxLjZoLThBMy42NCwzLjY0LDAsMCwxLDE2Ljg4LDQ3LjczWm0xOS45LDIuODdoN2EyLjY2LDIuNjYsMCwwLDAsMi4zNi0yLjg3VjM1LjJINDhsLTYuMy03LjI5LDAtLjVWMjMuMDVjMC0uODctLjU0LTEuNTItMS0xLjUycy0xLC42Ny0xLDEuNDRsLS4xLDIuNTRMMzIsMTYuNjYsMTYsMzUuMmgxLjlWNDcuNzNhMi42NiwyLjY2LDAsMCwwLDIuMzYsMi44N2g3VjQzLjQ5YTQuODIsNC44MiwwLDAsMSw0LjUzLTUuMDZoLjVhNC44Miw0LjgyLDAsMCwxLDQuNTMsNS4wNlptLTIzLTE0LjRoMFptMjktOC42NHYwWk0zOC42MywyMi44bC4xMi4xM2EyLjgsMi44LDAsMCwxLC4xNi0uODhabTIuMTEtMi4yN1ptMCwwaDBaIi8+PC9zdmc+;" parent="GOPRsWWLTEmbJ2inh4wm-174" vertex="1">
          <mxGeometry x="26.875" y="3.375" width="37.25" height="37.25" as="geometry" />
        </mxCell>
        <mxCell id="GOPRsWWLTEmbJ2inh4wm-178" value="" style="group" parent="1" vertex="1" connectable="0">
          <mxGeometry x="153" y="317" width="80" height="80" as="geometry" />
        </mxCell>
        <mxCell id="GOPRsWWLTEmbJ2inh4wm-179" value="" style="ellipse;whiteSpace=wrap;html=1;aspect=fixed;fontSize=16;fillColor=#3D4FAD;strokeColor=#1A1A1A;" parent="GOPRsWWLTEmbJ2inh4wm-178" vertex="1">
          <mxGeometry width="80" height="80" as="geometry" />
        </mxCell>
        <mxCell id="GOPRsWWLTEmbJ2inh4wm-180" value="" style="shape=image;verticalLabelPosition=bottom;labelBackgroundColor=default;verticalAlign=top;aspect=fixed;imageAspect=0;image=https://cdn-icons-png.flaticon.com/512/147/147144.png;" parent="GOPRsWWLTEmbJ2inh4wm-178" vertex="1">
          <mxGeometry x="2.5" y="2.5" width="75" height="75" as="geometry" />
        </mxCell>
        <mxCell id="GOPRsWWLTEmbJ2inh4wm-183" value="" style="shape=image;verticalLabelPosition=bottom;labelBackgroundColor=default;verticalAlign=top;aspect=fixed;imageAspect=0;image=https://cdn-icons-png.flaticon.com/512/3682/3682321.png;" parent="1" vertex="1">
          <mxGeometry x="1230" y="926" width="35" height="35" as="geometry" />
        </mxCell>
        <mxCell id="GOPRsWWLTEmbJ2inh4wm-195" value="Default home page screen" style="rounded=0;whiteSpace=wrap;html=1;fontSize=26;" parent="1" vertex="1">
          <mxGeometry x="530" y="110" width="417" height="100" as="geometry" />
        </mxCell>
        <mxCell id="GOPRsWWLTEmbJ2inh4wm-196" value="Home page screen when user type a toot" style="rounded=0;whiteSpace=wrap;html=1;fontSize=26;" parent="1" vertex="1">
          <mxGeometry x="420" y="1110" width="650" height="100" as="geometry" />
        </mxCell>
        <mxCell id="GOPRsWWLTEmbJ2inh4wm-199" value="" style="group" parent="1" vertex="1" connectable="0">
          <mxGeometry x="1580" y="1092.25" width="680.75" height="400" as="geometry" />
        </mxCell>
        <mxCell id="GOPRsWWLTEmbJ2inh4wm-71" value="" style="rounded=0;whiteSpace=wrap;html=1;fontSize=16;fillColor=#dae8fc;strokeColor=#6c8ebf;" parent="GOPRsWWLTEmbJ2inh4wm-199" vertex="1">
          <mxGeometry width="680.75" height="400" as="geometry" />
        </mxCell>
        <mxCell id="GOPRsWWLTEmbJ2inh4wm-69" value="" style="rounded=0;whiteSpace=wrap;html=1;fontSize=16;fillColor=#3D4FAD;strokeColor=none;strokeWidth=3;" parent="GOPRsWWLTEmbJ2inh4wm-199" vertex="1">
          <mxGeometry x="519" y="50" width="79.5" height="40" as="geometry" />
        </mxCell>
        <mxCell id="GOPRsWWLTEmbJ2inh4wm-70" value="" style="rounded=0;whiteSpace=wrap;html=1;fontSize=16;fillColor=#3D4FAD;strokeColor=none;" parent="GOPRsWWLTEmbJ2inh4wm-199" vertex="1">
          <mxGeometry x="60.5" y="50" width="79.5" height="40" as="geometry" />
        </mxCell>
        <mxCell id="GOPRsWWLTEmbJ2inh4wm-72" value="Text color" style="text;strokeColor=none;fillColor=none;html=1;align=center;verticalAlign=middle;whiteSpace=wrap;rounded=0;fontSize=16;" parent="GOPRsWWLTEmbJ2inh4wm-199" vertex="1">
          <mxGeometry x="478.75" y="10" width="160" height="30" as="geometry" />
        </mxCell>
        <mxCell id="GOPRsWWLTEmbJ2inh4wm-73" value="Container color" style="text;strokeColor=none;fillColor=none;html=1;align=center;verticalAlign=middle;whiteSpace=wrap;rounded=0;fontSize=16;" parent="GOPRsWWLTEmbJ2inh4wm-199" vertex="1">
          <mxGeometry x="11.25" y="10" width="160" height="30" as="geometry" />
        </mxCell>
        <mxCell id="GOPRsWWLTEmbJ2inh4wm-74" value="" style="rounded=0;whiteSpace=wrap;html=1;fontSize=16;fillColor=#FFFFFF;strokeColor=none;strokeWidth=3;" parent="GOPRsWWLTEmbJ2inh4wm-199" vertex="1">
          <mxGeometry x="519" y="100" width="79.5" height="40" as="geometry" />
        </mxCell>
        <mxCell id="GOPRsWWLTEmbJ2inh4wm-75" value="" style="rounded=0;whiteSpace=wrap;html=1;fontSize=16;fillColor=#999999;strokeColor=none;strokeWidth=3;fontColor=#999999;" parent="GOPRsWWLTEmbJ2inh4wm-199" vertex="1">
          <mxGeometry x="519" y="150" width="79.5" height="40" as="geometry" />
        </mxCell>
        <mxCell id="GOPRsWWLTEmbJ2inh4wm-76" value="" style="rounded=0;whiteSpace=wrap;html=1;fontSize=16;fillColor=#1A1A1A;strokeColor=none;" parent="GOPRsWWLTEmbJ2inh4wm-199" vertex="1">
          <mxGeometry x="60.5" y="100" width="79.5" height="40" as="geometry" />
        </mxCell>
        <mxCell id="GOPRsWWLTEmbJ2inh4wm-77" value="Top bar, Border" style="text;strokeColor=none;fillColor=none;html=1;align=center;verticalAlign=middle;whiteSpace=wrap;rounded=0;fontSize=16;" parent="GOPRsWWLTEmbJ2inh4wm-199" vertex="1">
          <mxGeometry x="157.75" y="105" width="132.25" height="30" as="geometry" />
        </mxCell>
        <mxCell id="GOPRsWWLTEmbJ2inh4wm-78" value="" style="rounded=0;whiteSpace=wrap;html=1;fontSize=16;fillColor=#303030;strokeColor=none;" parent="GOPRsWWLTEmbJ2inh4wm-199" vertex="1">
          <mxGeometry x="60.5" y="150" width="79.5" height="40" as="geometry" />
        </mxCell>
        <mxCell id="GOPRsWWLTEmbJ2inh4wm-79" value="Search bar" style="text;strokeColor=none;fillColor=none;html=1;align=center;verticalAlign=middle;whiteSpace=wrap;rounded=0;fontSize=16;" parent="GOPRsWWLTEmbJ2inh4wm-199" vertex="1">
          <mxGeometry x="157.75" y="155" width="93" height="30" as="geometry" />
        </mxCell>
        <mxCell id="GOPRsWWLTEmbJ2inh4wm-80" value="" style="rounded=0;whiteSpace=wrap;html=1;fontSize=16;fillColor=#333333;strokeColor=none;" parent="GOPRsWWLTEmbJ2inh4wm-199" vertex="1">
          <mxGeometry x="60.5" y="200" width="79.5" height="40" as="geometry" />
        </mxCell>
        <mxCell id="GOPRsWWLTEmbJ2inh4wm-81" value="Background" style="text;strokeColor=none;fillColor=none;html=1;align=center;verticalAlign=middle;whiteSpace=wrap;rounded=0;fontSize=16;" parent="GOPRsWWLTEmbJ2inh4wm-199" vertex="1">
          <mxGeometry x="157.75" y="205" width="93" height="30" as="geometry" />
        </mxCell>
        <mxCell id="GOPRsWWLTEmbJ2inh4wm-84" value="" style="rounded=0;whiteSpace=wrap;html=1;fontSize=16;fillColor=#404040;strokeColor=none;" parent="GOPRsWWLTEmbJ2inh4wm-199" vertex="1">
          <mxGeometry x="60.5" y="300" width="79.5" height="40" as="geometry" />
        </mxCell>
        <mxCell id="GOPRsWWLTEmbJ2inh4wm-85" value="Container" style="text;strokeColor=none;fillColor=none;html=1;align=center;verticalAlign=middle;whiteSpace=wrap;rounded=0;fontSize=16;" parent="GOPRsWWLTEmbJ2inh4wm-199" vertex="1">
          <mxGeometry x="157.75" y="305" width="93" height="30" as="geometry" />
        </mxCell>
        <mxCell id="GOPRsWWLTEmbJ2inh4wm-86" value="EOI (element of interest), separator" style="text;strokeColor=none;fillColor=none;html=1;align=center;verticalAlign=middle;whiteSpace=wrap;rounded=0;fontSize=16;" parent="GOPRsWWLTEmbJ2inh4wm-199" vertex="1">
          <mxGeometry x="157.75" y="55" width="272.25" height="30" as="geometry" />
        </mxCell>
        <mxCell id="GOPRsWWLTEmbJ2inh4wm-197" value="" style="rounded=0;whiteSpace=wrap;html=1;fontSize=16;fillColor=#4D4D4D;strokeColor=none;" parent="GOPRsWWLTEmbJ2inh4wm-199" vertex="1">
          <mxGeometry x="60.5" y="350" width="79.5" height="40" as="geometry" />
        </mxCell>
        <mxCell id="GOPRsWWLTEmbJ2inh4wm-198" value="Selected icon" style="text;strokeColor=none;fillColor=none;html=1;align=center;verticalAlign=middle;whiteSpace=wrap;rounded=0;fontSize=16;" parent="GOPRsWWLTEmbJ2inh4wm-199" vertex="1">
          <mxGeometry x="157" y="355" width="113" height="30" as="geometry" />
        </mxCell>
        <mxCell id="GOPRsWWLTEmbJ2inh4wm-321" value="" style="rounded=0;whiteSpace=wrap;html=1;fontSize=16;fillColor=#383838;strokeColor=none;" parent="GOPRsWWLTEmbJ2inh4wm-199" vertex="1">
          <mxGeometry x="60.5" y="247.75" width="79.5" height="40" as="geometry" />
        </mxCell>
        <mxCell id="GOPRsWWLTEmbJ2inh4wm-322" value="Selected toot" style="text;strokeColor=none;fillColor=none;html=1;align=center;verticalAlign=middle;whiteSpace=wrap;rounded=0;fontSize=16;" parent="GOPRsWWLTEmbJ2inh4wm-199" vertex="1">
          <mxGeometry x="157.75" y="252.75" width="102.25" height="30" as="geometry" />
        </mxCell>
        <mxCell id="GOPRsWWLTEmbJ2inh4wm-201" style="edgeStyle=none;curved=1;rounded=0;orthogonalLoop=1;jettySize=auto;html=1;entryX=1;entryY=0.5;entryDx=0;entryDy=0;fontSize=12;startSize=8;endSize=8;" parent="1" source="GOPRsWWLTEmbJ2inh4wm-200" target="GOPRsWWLTEmbJ2inh4wm-105" edge="1">
          <mxGeometry relative="1" as="geometry" />
        </mxCell>
        <mxCell id="GOPRsWWLTEmbJ2inh4wm-200" value="Post visibility" style="rounded=0;whiteSpace=wrap;html=1;fontSize=16;" parent="1" vertex="1">
          <mxGeometry x="1335" y="1748" width="130" height="60" as="geometry" />
        </mxCell>
        <mxCell id="GOPRsWWLTEmbJ2inh4wm-204" style="edgeStyle=none;curved=1;rounded=0;orthogonalLoop=1;jettySize=auto;html=1;fontSize=12;startSize=8;endSize=8;entryX=0.5;entryY=0.761;entryDx=0;entryDy=0;entryPerimeter=0;" parent="1" source="GOPRsWWLTEmbJ2inh4wm-203" target="GOPRsWWLTEmbJ2inh4wm-99" edge="1">
          <mxGeometry relative="1" as="geometry" />
        </mxCell>
        <mxCell id="GOPRsWWLTEmbJ2inh4wm-203" value="Remaining character" style="rounded=0;whiteSpace=wrap;html=1;fontSize=16;" parent="1" vertex="1">
          <mxGeometry x="1300" y="2045.5" width="120" height="60" as="geometry" />
        </mxCell>
        <mxCell id="GOPRsWWLTEmbJ2inh4wm-205" value="" style="group" parent="1" vertex="1" connectable="0">
          <mxGeometry x="1223.25" y="1929" width="47.5" height="38" as="geometry" />
        </mxCell>
        <mxCell id="GOPRsWWLTEmbJ2inh4wm-109" value="" style="rounded=1;whiteSpace=wrap;html=1;fontSize=16;strokeColor=none;fillColor=#4D4D4D;" parent="GOPRsWWLTEmbJ2inh4wm-205" vertex="1">
          <mxGeometry y="2" width="47.5" height="34" as="geometry" />
        </mxCell>
        <mxCell id="GOPRsWWLTEmbJ2inh4wm-98" value="EN" style="text;strokeColor=none;fillColor=none;html=1;align=center;verticalAlign=middle;whiteSpace=wrap;rounded=0;fontSize=20;fontColor=#999999;fontStyle=1" parent="GOPRsWWLTEmbJ2inh4wm-205" vertex="1">
          <mxGeometry x="3.75" width="40" height="38" as="geometry" />
        </mxCell>
        <mxCell id="GOPRsWWLTEmbJ2inh4wm-206" value="" style="shape=image;verticalLabelPosition=bottom;labelBackgroundColor=default;verticalAlign=top;aspect=fixed;imageAspect=0;image=https://upload.wikimedia.org/wikipedia/commons/thumb/9/90/Twemoji_1f600.svg/1200px-Twemoji_1f600.svg.png;" parent="1" vertex="1">
          <mxGeometry x="1147" y="1926.125" width="28.5" height="28.5" as="geometry" />
        </mxCell>
        <mxCell id="GOPRsWWLTEmbJ2inh4wm-207" value="" style="shape=image;verticalLabelPosition=bottom;labelBackgroundColor=default;verticalAlign=top;aspect=fixed;imageAspect=0;image=https://static.thenounproject.com/png/2192072-200.png;" parent="1" vertex="1">
          <mxGeometry x="1103" y="1924.25" width="32.25" height="32.25" as="geometry" />
        </mxCell>
        <mxCell id="GOPRsWWLTEmbJ2inh4wm-208" value="" style="shape=image;verticalLabelPosition=bottom;labelBackgroundColor=default;verticalAlign=top;aspect=fixed;imageAspect=0;image=https://upload.wikimedia.org/wikipedia/commons/thumb/9/90/Twemoji_1f600.svg/1200px-Twemoji_1f600.svg.png;" parent="1" vertex="1">
          <mxGeometry x="1147" y="1924.38" width="28.5" height="28.5" as="geometry" />
        </mxCell>
        <mxCell id="GOPRsWWLTEmbJ2inh4wm-209" value="" style="shape=image;verticalLabelPosition=bottom;labelBackgroundColor=default;verticalAlign=top;aspect=fixed;imageAspect=0;image=https://static.thenounproject.com/png/2192072-200.png;" parent="1" vertex="1">
          <mxGeometry x="1103" y="1922.505" width="32.25" height="32.25" as="geometry" />
        </mxCell>
        <mxCell id="GOPRsWWLTEmbJ2inh4wm-210" value="" style="shape=image;verticalLabelPosition=bottom;labelBackgroundColor=default;verticalAlign=top;aspect=fixed;imageAspect=0;image=https://cdn-icons-png.flaticon.com/512/1345/1345874.png;" parent="1" vertex="1">
          <mxGeometry x="982" y="1924.13" width="29" height="29" as="geometry" />
        </mxCell>
        <mxCell id="GOPRsWWLTEmbJ2inh4wm-211" value="Description" style="text;strokeColor=none;fillColor=none;html=1;align=left;verticalAlign=middle;whiteSpace=wrap;rounded=0;fontSize=16;fontColor=#999999;fontStyle=2" parent="1" vertex="1">
          <mxGeometry x="600" y="1923.63" width="89.5" height="30" as="geometry" />
        </mxCell>
        <mxCell id="GOPRsWWLTEmbJ2inh4wm-212" value="" style="group" parent="1" vertex="1" connectable="0">
          <mxGeometry x="380" y="335" width="72" height="52" as="geometry" />
        </mxCell>
        <mxCell id="GOPRsWWLTEmbJ2inh4wm-213" value="" style="ellipse;whiteSpace=wrap;html=1;aspect=fixed;fontSize=16;fillColor=#3D4FAD;strokeColor=#1A1A1A;" parent="GOPRsWWLTEmbJ2inh4wm-212" vertex="1">
          <mxGeometry width="47" height="47" as="geometry" />
        </mxCell>
        <mxCell id="GOPRsWWLTEmbJ2inh4wm-264" value="" style="shape=image;verticalLabelPosition=bottom;labelBackgroundColor=default;verticalAlign=top;aspect=fixed;imageAspect=0;image=https://cdn-icons-png.flaticon.com/512/147/147133.png;" parent="GOPRsWWLTEmbJ2inh4wm-212" vertex="1">
          <mxGeometry x="2.5" y="2.5" width="42" height="42" as="geometry" />
        </mxCell>
        <mxCell id="GOPRsWWLTEmbJ2inh4wm-215" value="Moi" style="text;html=1;align=left;verticalAlign=middle;whiteSpace=wrap;rounded=0;fontSize=16;fontColor=#FFFFFF;fontStyle=1" parent="1" vertex="1">
          <mxGeometry x="430" y="330" width="40" height="22.75" as="geometry" />
        </mxCell>
        <mxCell id="GOPRsWWLTEmbJ2inh4wm-217" value="@Moi" style="text;html=1;strokeColor=none;fillColor=none;align=left;verticalAlign=middle;whiteSpace=wrap;rounded=0;fontSize=10;fontColor=#999999;" parent="1" vertex="1">
          <mxGeometry x="430" y="346.5" width="40" height="18" as="geometry" />
        </mxCell>
        <mxCell id="GOPRsWWLTEmbJ2inh4wm-219" value="Hi here is an exemple toot, by this way you can see how they are displayed" style="text;strokeColor=none;fillColor=none;html=1;align=left;verticalAlign=middle;whiteSpace=wrap;rounded=0;fontSize=16;fontColor=#FFFFFF;" parent="1" vertex="1">
          <mxGeometry x="430" y="368" width="540" height="21.87" as="geometry" />
        </mxCell>
        <mxCell id="GOPRsWWLTEmbJ2inh4wm-220" value="5d" style="text;html=1;strokeColor=none;fillColor=none;align=left;verticalAlign=middle;whiteSpace=wrap;rounded=0;fontSize=16;fontColor=#999999;fontStyle=0" parent="1" vertex="1">
          <mxGeometry x="1244" y="321.75" width="22.5" height="30" as="geometry" />
        </mxCell>
        <mxCell id="GOPRsWWLTEmbJ2inh4wm-237" value="" style="group" parent="1" vertex="1" connectable="0">
          <mxGeometry x="380" y="436.13" width="50" height="47" as="geometry" />
        </mxCell>
        <mxCell id="GOPRsWWLTEmbJ2inh4wm-238" value="" style="ellipse;whiteSpace=wrap;html=1;aspect=fixed;fontSize=16;fillColor=#3D4FAD;strokeColor=#1A1A1A;" parent="GOPRsWWLTEmbJ2inh4wm-237" vertex="1">
          <mxGeometry width="47" height="47" as="geometry" />
        </mxCell>
        <mxCell id="GOPRsWWLTEmbJ2inh4wm-239" value="" style="shape=image;verticalLabelPosition=bottom;labelBackgroundColor=default;verticalAlign=top;aspect=fixed;imageAspect=0;image=https://cdn-icons-png.flaticon.com/512/147/147144.png;" parent="GOPRsWWLTEmbJ2inh4wm-237" vertex="1">
          <mxGeometry x="1.5625" y="1.46875" width="44.0625" height="44.0625" as="geometry" />
        </mxCell>
        <mxCell id="GOPRsWWLTEmbJ2inh4wm-240" value="Hpn4" style="text;html=1;align=left;verticalAlign=middle;whiteSpace=wrap;rounded=0;fontSize=16;fontColor=#FFFFFF;fontStyle=1" parent="1" vertex="1">
          <mxGeometry x="430" y="431.13" width="40" height="22.75" as="geometry" />
        </mxCell>
        <mxCell id="GOPRsWWLTEmbJ2inh4wm-241" value="@Hpn4" style="text;html=1;strokeColor=none;fillColor=none;align=left;verticalAlign=middle;whiteSpace=wrap;rounded=0;fontSize=10;fontColor=#999999;" parent="1" vertex="1">
          <mxGeometry x="430" y="447.63" width="40" height="18" as="geometry" />
        </mxCell>
        <mxCell id="GOPRsWWLTEmbJ2inh4wm-242" value="Yeah !!! The release date of starfield has been anounced ! After a long development, Bethesda (Skyrim, Fallout, Dishonored) offers to us a fresh new license in the sky !&lt;br&gt;&lt;br&gt;The game is anounced for the 6 september 2023" style="text;strokeColor=none;fillColor=none;html=1;align=left;verticalAlign=middle;whiteSpace=wrap;rounded=0;fontSize=16;fontColor=#FFFFFF;" parent="1" vertex="1">
          <mxGeometry x="430" y="461" width="820" height="95" as="geometry" />
        </mxCell>
        <mxCell id="GOPRsWWLTEmbJ2inh4wm-243" value="3d" style="text;html=1;strokeColor=none;fillColor=none;align=left;verticalAlign=middle;whiteSpace=wrap;rounded=0;fontSize=16;fontColor=#999999;fontStyle=0" parent="1" vertex="1">
          <mxGeometry x="1244" y="422.88" width="22.5" height="30" as="geometry" />
        </mxCell>
        <mxCell id="GOPRsWWLTEmbJ2inh4wm-244" value="" style="group" parent="1" vertex="1" connectable="0">
          <mxGeometry x="977" y="424.38" width="252" height="29" as="geometry" />
        </mxCell>
        <mxCell id="GOPRsWWLTEmbJ2inh4wm-245" value="" style="shape=image;verticalLabelPosition=bottom;labelBackgroundColor=default;verticalAlign=top;aspect=fixed;imageAspect=0;image=https://cdn-icons-png.flaticon.com/512/25/25353.png;" parent="GOPRsWWLTEmbJ2inh4wm-244" vertex="1">
          <mxGeometry x="190" y="4.984375" width="19.03125" height="19.03125" as="geometry" />
        </mxCell>
        <mxCell id="GOPRsWWLTEmbJ2inh4wm-246" value="" style="shape=image;verticalLabelPosition=bottom;labelBackgroundColor=default;verticalAlign=top;aspect=fixed;imageAspect=0;image=https://cdn-icons-png.flaticon.com/512/17/17764.png;" parent="GOPRsWWLTEmbJ2inh4wm-244" vertex="1">
          <mxGeometry x="232" y="5.4375" width="18.125" height="18.125" as="geometry" />
        </mxCell>
        <mxCell id="GOPRsWWLTEmbJ2inh4wm-247" value="" style="group" parent="GOPRsWWLTEmbJ2inh4wm-244" vertex="1" connectable="0">
          <mxGeometry y="0.90625" width="58" height="27.1875" as="geometry" />
        </mxCell>
        <mxCell id="GOPRsWWLTEmbJ2inh4wm-248" value="" style="shape=image;verticalLabelPosition=bottom;labelBackgroundColor=default;verticalAlign=top;aspect=fixed;imageAspect=0;image=https://cdn-icons-png.flaticon.com/512/1933/1933011.png;" parent="GOPRsWWLTEmbJ2inh4wm-247" vertex="1">
          <mxGeometry y="0.90625" width="25.375" height="25.375" as="geometry" />
        </mxCell>
        <mxCell id="GOPRsWWLTEmbJ2inh4wm-249" value="3" style="text;html=1;strokeColor=none;fillColor=none;align=left;verticalAlign=middle;whiteSpace=wrap;rounded=0;fontSize=16;fontColor=#999999;fontStyle=1" parent="GOPRsWWLTEmbJ2inh4wm-247" vertex="1">
          <mxGeometry x="30.5" width="27.5" height="27.1875" as="geometry" />
        </mxCell>
        <mxCell id="GOPRsWWLTEmbJ2inh4wm-250" value="" style="group" parent="GOPRsWWLTEmbJ2inh4wm-244" vertex="1" connectable="0">
          <mxGeometry x="63" width="61.5" height="29" as="geometry" />
        </mxCell>
        <mxCell id="GOPRsWWLTEmbJ2inh4wm-251" value="" style="shape=image;verticalLabelPosition=bottom;labelBackgroundColor=default;verticalAlign=top;aspect=fixed;imageAspect=0;image=https://static.thenounproject.com/png/17703-200.png;" parent="GOPRsWWLTEmbJ2inh4wm-250" vertex="1">
          <mxGeometry width="29" height="29" as="geometry" />
        </mxCell>
        <mxCell id="GOPRsWWLTEmbJ2inh4wm-252" value="12" style="text;html=1;strokeColor=none;fillColor=none;align=left;verticalAlign=middle;whiteSpace=wrap;rounded=0;fontSize=16;fontColor=#999999;fontStyle=1" parent="GOPRsWWLTEmbJ2inh4wm-250" vertex="1">
          <mxGeometry x="34" y="0.90625" width="27.5" height="27.1875" as="geometry" />
        </mxCell>
        <mxCell id="GOPRsWWLTEmbJ2inh4wm-253" value="" style="group" parent="GOPRsWWLTEmbJ2inh4wm-244" vertex="1" connectable="0">
          <mxGeometry x="136" y="3.625" width="52.5" height="21.75" as="geometry" />
        </mxCell>
        <mxCell id="GOPRsWWLTEmbJ2inh4wm-254" value="" style="shape=image;verticalLabelPosition=bottom;labelBackgroundColor=default;verticalAlign=top;aspect=fixed;imageAspect=0;image=https://cdn-icons-png.flaticon.com/512/56/56786.png;" parent="GOPRsWWLTEmbJ2inh4wm-253" vertex="1">
          <mxGeometry y="1.0874999999999897" width="19.575" height="19.575" as="geometry" />
        </mxCell>
        <mxCell id="GOPRsWWLTEmbJ2inh4wm-255" value="1" style="text;html=1;strokeColor=none;fillColor=none;align=left;verticalAlign=middle;whiteSpace=wrap;rounded=0;fontSize=16;fontColor=#999999;fontStyle=1" parent="GOPRsWWLTEmbJ2inh4wm-253" vertex="1">
          <mxGeometry x="25" width="27.5" height="21.75" as="geometry" />
        </mxCell>
        <mxCell id="GOPRsWWLTEmbJ2inh4wm-263" value="" style="shape=image;verticalLabelPosition=bottom;labelBackgroundColor=default;verticalAlign=top;aspect=fixed;imageAspect=0;image=https://i.blogs.es/a3e3e2/starfield/1366_2000.jpeg;backgroundOutline=0;comic=0;treeFolding=0;noLabel=0;" parent="1" vertex="1">
          <mxGeometry x="430" y="558" width="484.38" height="272" as="geometry" />
        </mxCell>
        <mxCell id="GOPRsWWLTEmbJ2inh4wm-274" value="" style="group" parent="1" vertex="1" connectable="0">
          <mxGeometry x="380" y="883.25" width="72" height="52" as="geometry" />
        </mxCell>
        <mxCell id="GOPRsWWLTEmbJ2inh4wm-275" value="" style="ellipse;whiteSpace=wrap;html=1;aspect=fixed;fontSize=16;fillColor=#3D4FAD;strokeColor=#1A1A1A;" parent="GOPRsWWLTEmbJ2inh4wm-274" vertex="1">
          <mxGeometry width="47" height="47" as="geometry" />
        </mxCell>
        <mxCell id="GOPRsWWLTEmbJ2inh4wm-276" value="" style="shape=image;verticalLabelPosition=bottom;labelBackgroundColor=default;verticalAlign=top;aspect=fixed;imageAspect=0;image=https://cdn-icons-png.flaticon.com/512/147/147133.png;" parent="GOPRsWWLTEmbJ2inh4wm-274" vertex="1">
          <mxGeometry x="2.5" y="2.5" width="42" height="42" as="geometry" />
        </mxCell>
        <mxCell id="GOPRsWWLTEmbJ2inh4wm-277" value="Moi" style="text;html=1;align=left;verticalAlign=middle;whiteSpace=wrap;rounded=0;fontSize=16;fontColor=#FFFFFF;fontStyle=1" parent="1" vertex="1">
          <mxGeometry x="430" y="878.25" width="40" height="22.75" as="geometry" />
        </mxCell>
        <mxCell id="GOPRsWWLTEmbJ2inh4wm-278" value="@Moi" style="text;html=1;strokeColor=none;fillColor=none;align=left;verticalAlign=middle;whiteSpace=wrap;rounded=0;fontSize=10;fontColor=#999999;" parent="1" vertex="1">
          <mxGeometry x="430" y="894.75" width="40" height="18" as="geometry" />
        </mxCell>
        <mxCell id="GOPRsWWLTEmbJ2inh4wm-279" value="Hi here is an exemple toot, by this way you can see how they are displayed" style="text;strokeColor=none;fillColor=none;html=1;align=left;verticalAlign=middle;whiteSpace=wrap;rounded=0;fontSize=16;fontColor=#FFFFFF;" parent="1" vertex="1">
          <mxGeometry x="430" y="916.25" width="540" height="21.87" as="geometry" />
        </mxCell>
        <mxCell id="GOPRsWWLTEmbJ2inh4wm-280" value="5d" style="text;html=1;strokeColor=none;fillColor=none;align=left;verticalAlign=middle;whiteSpace=wrap;rounded=0;fontSize=16;fontColor=#999999;fontStyle=0" parent="1" vertex="1">
          <mxGeometry x="1244" y="870" width="22.5" height="30" as="geometry" />
        </mxCell>
        <mxCell id="GOPRsWWLTEmbJ2inh4wm-185" value="" style="rounded=1;whiteSpace=wrap;html=1;fontSize=16;fillColor=#303030;strokeColor=none;arcSize=17;" parent="1" vertex="1">
          <mxGeometry x="379" y="921.5" width="831" height="44" as="geometry" />
        </mxCell>
        <mxCell id="GOPRsWWLTEmbJ2inh4wm-186" value="Type a toot here" style="text;html=1;align=left;verticalAlign=middle;whiteSpace=wrap;rounded=0;fontSize=16;fontColor=#999999;" parent="1" vertex="1">
          <mxGeometry x="390" y="928.5" width="178" height="30" as="geometry" />
        </mxCell>
        <mxCell id="GOPRsWWLTEmbJ2inh4wm-282" value="" style="group" parent="1" vertex="1" connectable="0">
          <mxGeometry x="390" y="1332.25" width="72" height="52" as="geometry" />
        </mxCell>
        <mxCell id="GOPRsWWLTEmbJ2inh4wm-283" value="" style="ellipse;whiteSpace=wrap;html=1;aspect=fixed;fontSize=16;fillColor=#3D4FAD;strokeColor=#1A1A1A;" parent="GOPRsWWLTEmbJ2inh4wm-282" vertex="1">
          <mxGeometry width="47" height="47" as="geometry" />
        </mxCell>
        <mxCell id="GOPRsWWLTEmbJ2inh4wm-284" value="" style="shape=image;verticalLabelPosition=bottom;labelBackgroundColor=default;verticalAlign=top;aspect=fixed;imageAspect=0;image=https://cdn-icons-png.flaticon.com/512/147/147133.png;" parent="GOPRsWWLTEmbJ2inh4wm-282" vertex="1">
          <mxGeometry x="2.5" y="2.5" width="42" height="42" as="geometry" />
        </mxCell>
        <mxCell id="GOPRsWWLTEmbJ2inh4wm-285" value="Moi" style="text;html=1;align=left;verticalAlign=middle;whiteSpace=wrap;rounded=0;fontSize=16;fontColor=#FFFFFF;fontStyle=1" parent="1" vertex="1">
          <mxGeometry x="440" y="1327.25" width="40" height="22.75" as="geometry" />
        </mxCell>
        <mxCell id="GOPRsWWLTEmbJ2inh4wm-286" value="@Moi" style="text;html=1;strokeColor=none;fillColor=none;align=left;verticalAlign=middle;whiteSpace=wrap;rounded=0;fontSize=10;fontColor=#999999;" parent="1" vertex="1">
          <mxGeometry x="440" y="1343.75" width="40" height="18" as="geometry" />
        </mxCell>
        <mxCell id="GOPRsWWLTEmbJ2inh4wm-287" value="Hi here is an exemple toot, by this way you can see how they are displayed" style="text;strokeColor=none;fillColor=none;html=1;align=left;verticalAlign=middle;whiteSpace=wrap;rounded=0;fontSize=16;fontColor=#FFFFFF;" parent="1" vertex="1">
          <mxGeometry x="440" y="1365.25" width="540" height="23.75" as="geometry" />
        </mxCell>
        <mxCell id="GOPRsWWLTEmbJ2inh4wm-288" value="5d" style="text;html=1;strokeColor=none;fillColor=none;align=left;verticalAlign=middle;whiteSpace=wrap;rounded=0;fontSize=16;fontColor=#999999;fontStyle=0" parent="1" vertex="1">
          <mxGeometry x="1254" y="1319" width="22.5" height="30" as="geometry" />
        </mxCell>
        <mxCell id="GOPRsWWLTEmbJ2inh4wm-289" value="" style="group" parent="1" vertex="1" connectable="0">
          <mxGeometry x="390" y="1412.25" width="72" height="52" as="geometry" />
        </mxCell>
        <mxCell id="GOPRsWWLTEmbJ2inh4wm-290" value="" style="ellipse;whiteSpace=wrap;html=1;aspect=fixed;fontSize=16;fillColor=#3D4FAD;strokeColor=#1A1A1A;" parent="GOPRsWWLTEmbJ2inh4wm-289" vertex="1">
          <mxGeometry width="47" height="47" as="geometry" />
        </mxCell>
        <mxCell id="GOPRsWWLTEmbJ2inh4wm-291" value="" style="shape=image;verticalLabelPosition=bottom;labelBackgroundColor=default;verticalAlign=top;aspect=fixed;imageAspect=0;image=https://cdn-icons-png.flaticon.com/512/147/147133.png;" parent="GOPRsWWLTEmbJ2inh4wm-289" vertex="1">
          <mxGeometry x="2.5" y="2.5" width="42" height="42" as="geometry" />
        </mxCell>
        <mxCell id="GOPRsWWLTEmbJ2inh4wm-292" value="Moi" style="text;html=1;align=left;verticalAlign=middle;whiteSpace=wrap;rounded=0;fontSize=16;fontColor=#FFFFFF;fontStyle=1" parent="1" vertex="1">
          <mxGeometry x="440" y="1407.25" width="40" height="22.75" as="geometry" />
        </mxCell>
        <mxCell id="GOPRsWWLTEmbJ2inh4wm-293" value="@Moi" style="text;html=1;strokeColor=none;fillColor=none;align=left;verticalAlign=middle;whiteSpace=wrap;rounded=0;fontSize=10;fontColor=#999999;" parent="1" vertex="1">
          <mxGeometry x="440" y="1423.75" width="40" height="18" as="geometry" />
        </mxCell>
        <mxCell id="GOPRsWWLTEmbJ2inh4wm-294" value="Hi here is an exemple toot, by this way you can see how they are displayed" style="text;strokeColor=none;fillColor=none;html=1;align=left;verticalAlign=middle;whiteSpace=wrap;rounded=0;fontSize=16;fontColor=#FFFFFF;" parent="1" vertex="1">
          <mxGeometry x="440" y="1445.25" width="540" height="21.87" as="geometry" />
        </mxCell>
        <mxCell id="GOPRsWWLTEmbJ2inh4wm-295" value="3d" style="text;html=1;strokeColor=none;fillColor=none;align=left;verticalAlign=middle;whiteSpace=wrap;rounded=0;fontSize=16;fontColor=#999999;fontStyle=0" parent="1" vertex="1">
          <mxGeometry x="1254" y="1399" width="22.5" height="30" as="geometry" />
        </mxCell>
        <mxCell id="GOPRsWWLTEmbJ2inh4wm-296" value="" style="group" parent="1" vertex="1" connectable="0">
          <mxGeometry x="390" y="1492.25" width="90" height="52" as="geometry" />
        </mxCell>
        <mxCell id="GOPRsWWLTEmbJ2inh4wm-297" value="" style="ellipse;whiteSpace=wrap;html=1;aspect=fixed;fontSize=16;fillColor=#3D4FAD;strokeColor=#1A1A1A;" parent="GOPRsWWLTEmbJ2inh4wm-296" vertex="1">
          <mxGeometry width="47" height="47" as="geometry" />
        </mxCell>
        <mxCell id="GOPRsWWLTEmbJ2inh4wm-298" value="" style="shape=image;verticalLabelPosition=bottom;labelBackgroundColor=default;verticalAlign=top;aspect=fixed;imageAspect=0;image=https://cdn-icons-png.flaticon.com/512/147/147133.png;" parent="GOPRsWWLTEmbJ2inh4wm-296" vertex="1">
          <mxGeometry x="2.5" y="2.5" width="42" height="42" as="geometry" />
        </mxCell>
        <mxCell id="GOPRsWWLTEmbJ2inh4wm-318" value="Moi" style="text;html=1;align=left;verticalAlign=middle;whiteSpace=wrap;rounded=0;fontSize=16;fontColor=#FFFFFF;fontStyle=1" parent="GOPRsWWLTEmbJ2inh4wm-296" vertex="1">
          <mxGeometry x="50" y="-3.25" width="40" height="22.75" as="geometry" />
        </mxCell>
        <mxCell id="GOPRsWWLTEmbJ2inh4wm-300" value="@Moi" style="text;html=1;strokeColor=none;fillColor=none;align=left;verticalAlign=middle;whiteSpace=wrap;rounded=0;fontSize=10;fontColor=#999999;" parent="1" vertex="1">
          <mxGeometry x="440" y="1503.75" width="40" height="18" as="geometry" />
        </mxCell>
        <mxCell id="GOPRsWWLTEmbJ2inh4wm-301" value="Here a&lt;br&gt;Multiline&lt;br&gt;Toots" style="text;strokeColor=none;fillColor=none;html=1;align=left;verticalAlign=middle;whiteSpace=wrap;rounded=0;fontSize=16;fontColor=#FFFFFF;" parent="1" vertex="1">
          <mxGeometry x="440" y="1525.25" width="540" height="53.75" as="geometry" />
        </mxCell>
        <mxCell id="GOPRsWWLTEmbJ2inh4wm-302" value="3d" style="text;html=1;strokeColor=none;fillColor=none;align=left;verticalAlign=middle;whiteSpace=wrap;rounded=0;fontSize=16;fontColor=#999999;fontStyle=0" parent="1" vertex="1">
          <mxGeometry x="1254" y="1479" width="22.5" height="30" as="geometry" />
        </mxCell>
        <mxCell id="GOPRsWWLTEmbJ2inh4wm-311" value="" style="group" parent="1" vertex="1" connectable="0">
          <mxGeometry x="390" y="1602.25" width="72" height="52" as="geometry" />
        </mxCell>
        <mxCell id="GOPRsWWLTEmbJ2inh4wm-312" value="" style="ellipse;whiteSpace=wrap;html=1;aspect=fixed;fontSize=16;fillColor=#3D4FAD;strokeColor=#1A1A1A;" parent="GOPRsWWLTEmbJ2inh4wm-311" vertex="1">
          <mxGeometry width="47" height="47" as="geometry" />
        </mxCell>
        <mxCell id="GOPRsWWLTEmbJ2inh4wm-313" value="" style="shape=image;verticalLabelPosition=bottom;labelBackgroundColor=default;verticalAlign=top;aspect=fixed;imageAspect=0;image=https://cdn-icons-png.flaticon.com/512/147/147133.png;" parent="GOPRsWWLTEmbJ2inh4wm-311" vertex="1">
          <mxGeometry x="2.5" y="2.5" width="42" height="42" as="geometry" />
        </mxCell>
        <mxCell id="GOPRsWWLTEmbJ2inh4wm-314" value="Moi" style="text;html=1;align=left;verticalAlign=middle;whiteSpace=wrap;rounded=0;fontSize=16;fontColor=#FFFFFF;fontStyle=1" parent="1" vertex="1">
          <mxGeometry x="440" y="1597.25" width="40" height="22.75" as="geometry" />
        </mxCell>
        <mxCell id="GOPRsWWLTEmbJ2inh4wm-315" value="@Moi" style="text;html=1;strokeColor=none;fillColor=none;align=left;verticalAlign=middle;whiteSpace=wrap;rounded=0;fontSize=10;fontColor=#999999;" parent="1" vertex="1">
          <mxGeometry x="440" y="1613.75" width="40" height="18" as="geometry" />
        </mxCell>
        <mxCell id="GOPRsWWLTEmbJ2inh4wm-316" value="Another random text" style="text;strokeColor=none;fillColor=none;html=1;align=left;verticalAlign=middle;whiteSpace=wrap;rounded=0;fontSize=16;fontColor=#FFFFFF;" parent="1" vertex="1">
          <mxGeometry x="440" y="1635.25" width="540" height="23.75" as="geometry" />
        </mxCell>
        <mxCell id="GOPRsWWLTEmbJ2inh4wm-317" value="1d" style="text;html=1;strokeColor=none;fillColor=none;align=left;verticalAlign=middle;whiteSpace=wrap;rounded=0;fontSize=16;fontColor=#999999;fontStyle=0" parent="1" vertex="1">
          <mxGeometry x="1254" y="1589" width="22.5" height="30" as="geometry" />
        </mxCell>
        <mxCell id="GOPRsWWLTEmbJ2inh4wm-320" style="edgeStyle=none;curved=1;rounded=0;orthogonalLoop=1;jettySize=auto;html=1;fontFamily=Helvetica;fontSize=12;fontColor=default;startSize=8;endSize=8;" parent="1" source="GOPRsWWLTEmbJ2inh4wm-319" edge="1">
          <mxGeometry relative="1" as="geometry">
            <mxPoint x="1200" y="450" as="targetPoint" />
          </mxGeometry>
        </mxCell>
        <mxCell id="GOPRsWWLTEmbJ2inh4wm-319" value="Repply, reblog, favourite, bookmark and more options are only displayed if your mouse is hover the toots." style="rounded=0;whiteSpace=wrap;html=1;fontSize=16;" parent="1" vertex="1">
          <mxGeometry x="1390" y="568.75" width="340" height="60" as="geometry" />
        </mxCell>
        <mxCell id="zUYq9ko0ZrBH7gSQxbFc-1" value="" style="rounded=0;whiteSpace=wrap;html=1;fillColor=#333333;" vertex="1" parent="1">
          <mxGeometry x="1850" y="297" width="1220" height="690" as="geometry" />
        </mxCell>
        <mxCell id="zUYq9ko0ZrBH7gSQxbFc-2" value="" style="rounded=1;whiteSpace=wrap;html=1;fontSize=16;arcSize=3;fillColor=#404040;rotation=0;strokeColor=#1A1A1A;" vertex="1" parent="1">
          <mxGeometry x="1860" y="307" width="260" height="670" as="geometry" />
        </mxCell>
        <mxCell id="zUYq9ko0ZrBH7gSQxbFc-3" value="@Hpn4" style="text;html=1;align=left;verticalAlign=middle;whiteSpace=wrap;rounded=0;fontSize=16;fontColor=#FFFFFF;" vertex="1" parent="1">
          <mxGeometry x="2007" y="327" width="60" height="30" as="geometry" />
        </mxCell>
        <mxCell id="zUYq9ko0ZrBH7gSQxbFc-4" value="Edit profile" style="text;html=1;strokeColor=none;fillColor=none;align=left;verticalAlign=middle;whiteSpace=wrap;rounded=0;fontSize=16;fontColor=#999999;" vertex="1" parent="1">
          <mxGeometry x="2007" y="357" width="100" height="30" as="geometry" />
        </mxCell>
        <mxCell id="zUYq9ko0ZrBH7gSQxbFc-5" value="" style="whiteSpace=wrap;html=1;fontSize=16;fontColor=#B3B3B3;fillColor=#3D4FAD;strokeColor=none;" vertex="1" parent="1">
          <mxGeometry x="1869.25" y="425" width="240" height="1" as="geometry" />
        </mxCell>
        <mxCell id="zUYq9ko0ZrBH7gSQxbFc-6" value="" style="rounded=1;whiteSpace=wrap;html=1;fontSize=16;arcSize=1;fillColor=#404040;strokeColor=#1A1A1A;" vertex="1" parent="1">
          <mxGeometry x="2140" y="307" width="920" height="670" as="geometry" />
        </mxCell>
        <mxCell id="zUYq9ko0ZrBH7gSQxbFc-8" value="" style="shape=image;verticalLabelPosition=bottom;labelBackgroundColor=default;verticalAlign=top;aspect=fixed;imageAspect=0;image=http://cdn.onlinewebfonts.com/svg/img_432682.png;" vertex="1" parent="1">
          <mxGeometry x="1871.5" y="317" width="38.5" height="38.5" as="geometry" />
        </mxCell>
        <mxCell id="zUYq9ko0ZrBH7gSQxbFc-9" value="" style="rounded=1;whiteSpace=wrap;html=1;fontSize=16;fillColor=#303030;strokeColor=none;" vertex="1" parent="1">
          <mxGeometry x="1870" y="445" width="240" height="45" as="geometry" />
        </mxCell>
        <mxCell id="zUYq9ko0ZrBH7gSQxbFc-10" value="" style="shape=image;verticalLabelPosition=bottom;labelBackgroundColor=default;verticalAlign=top;aspect=fixed;imageAspect=0;image=https://cdn-icons-png.flaticon.com/512/3917/3917754.png;" vertex="1" parent="1">
          <mxGeometry x="2080" y="454" width="27" height="27" as="geometry" />
        </mxCell>
        <mxCell id="zUYq9ko0ZrBH7gSQxbFc-11" value="" style="whiteSpace=wrap;html=1;fontSize=16;fontColor=#B3B3B3;fillColor=#3D4FAD;strokeColor=none;" vertex="1" parent="1">
          <mxGeometry x="1869.25" y="516" width="240" height="1" as="geometry" />
        </mxCell>
        <mxCell id="zUYq9ko0ZrBH7gSQxbFc-12" value="" style="group" vertex="1" connectable="0" parent="1">
          <mxGeometry x="1873.5" y="367" width="36.5" height="44" as="geometry" />
        </mxCell>
        <mxCell id="zUYq9ko0ZrBH7gSQxbFc-13" value="" style="shape=image;verticalLabelPosition=bottom;labelBackgroundColor=default;verticalAlign=top;aspect=fixed;imageAspect=0;image=https://cdn-icons-png.flaticon.com/512/565/565422.png;" vertex="1" parent="zUYq9ko0ZrBH7gSQxbFc-12">
          <mxGeometry width="36.5" height="36.5" as="geometry" />
        </mxCell>
        <mxCell id="zUYq9ko0ZrBH7gSQxbFc-14" value="" style="ellipse;whiteSpace=wrap;html=1;aspect=fixed;fillColor=#3D4FAD;strokeColor=none;" vertex="1" parent="zUYq9ko0ZrBH7gSQxbFc-12">
          <mxGeometry x="18.879310344827584" width="12.586206896551724" height="12.586206896551724" as="geometry" />
        </mxCell>
        <mxCell id="zUYq9ko0ZrBH7gSQxbFc-15" value="" style="whiteSpace=wrap;html=1;fontSize=16;fontColor=#B3B3B3;fillColor=#3D4FAD;strokeColor=none;" vertex="1" parent="1">
          <mxGeometry x="1869.25" y="731" width="240" height="1" as="geometry" />
        </mxCell>
        <mxCell id="zUYq9ko0ZrBH7gSQxbFc-16" value="Search or paste URL..." style="text;html=1;align=left;verticalAlign=middle;whiteSpace=wrap;rounded=0;fontSize=16;fontColor=#999999;" vertex="1" parent="1">
          <mxGeometry x="1873.5" y="452.5" width="178" height="30" as="geometry" />
        </mxCell>
        <mxCell id="zUYq9ko0ZrBH7gSQxbFc-17" value="" style="rounded=0;whiteSpace=wrap;html=1;fontSize=16;fillColor=#1A1A1A;" vertex="1" parent="1">
          <mxGeometry x="1850" y="260" width="1220" height="37" as="geometry" />
        </mxCell>
        <mxCell id="zUYq9ko0ZrBH7gSQxbFc-18" value="" style="rounded=0;whiteSpace=wrap;html=1;fontSize=16;fillColor=none;strokeColor=#FFFFFF;strokeWidth=2;" vertex="1" parent="1">
          <mxGeometry x="2964" y="268.5" width="20" height="20" as="geometry" />
        </mxCell>
        <mxCell id="zUYq9ko0ZrBH7gSQxbFc-19" value="" style="rounded=0;whiteSpace=wrap;html=1;fontSize=16;fillColor=none;strokeColor=#FFFFFF;" vertex="1" parent="1">
          <mxGeometry x="2917" y="278" width="20" height="1" as="geometry" />
        </mxCell>
        <mxCell id="zUYq9ko0ZrBH7gSQxbFc-20" value="" style="verticalLabelPosition=bottom;verticalAlign=top;html=1;shape=mxgraph.basic.rect;fillColor2=none;strokeWidth=1;size=20;indent=5;fontSize=16;fillColor=#FF3333;strokeColor=none;" vertex="1" parent="1">
          <mxGeometry x="3010" y="260" width="60" height="37" as="geometry" />
        </mxCell>
        <mxCell id="zUYq9ko0ZrBH7gSQxbFc-21" value="" style="rounded=0;whiteSpace=wrap;html=1;fontSize=16;fillColor=none;strokeColor=#FFFFFF;rotation=45;" vertex="1" parent="1">
          <mxGeometry x="3027.5" y="278" width="25" height="1" as="geometry" />
        </mxCell>
        <mxCell id="zUYq9ko0ZrBH7gSQxbFc-22" value="" style="rounded=0;whiteSpace=wrap;html=1;fontSize=16;fillColor=none;strokeColor=#FFFFFF;rotation=-45;" vertex="1" parent="1">
          <mxGeometry x="3027.5" y="278" width="25" height="1" as="geometry" />
        </mxCell>
        <mxCell id="zUYq9ko0ZrBH7gSQxbFc-23" value="" style="group" vertex="1" connectable="0" parent="1">
          <mxGeometry x="1895.5" y="921" width="182.5" height="38" as="geometry" />
        </mxCell>
        <mxCell id="zUYq9ko0ZrBH7gSQxbFc-24" value="" style="shape=image;verticalLabelPosition=bottom;labelBackgroundColor=default;verticalAlign=top;aspect=fixed;imageAspect=0;image=https://cdn.iconscout.com/icon/free/png-256/bullet-point-3444944-2878318.png;" vertex="1" parent="zUYq9ko0ZrBH7gSQxbFc-23">
          <mxGeometry y="8" width="22" height="22" as="geometry" />
        </mxCell>
        <mxCell id="zUYq9ko0ZrBH7gSQxbFc-25" value="Lists" style="text;strokeColor=none;fillColor=none;html=1;align=left;verticalAlign=middle;whiteSpace=wrap;rounded=0;fontSize=16;fontColor=#999999;fontStyle=1" vertex="1" parent="zUYq9ko0ZrBH7gSQxbFc-23">
          <mxGeometry x="52.5" width="130" height="38" as="geometry" />
        </mxCell>
        <mxCell id="zUYq9ko0ZrBH7gSQxbFc-26" value="" style="group" vertex="1" connectable="0" parent="1">
          <mxGeometry x="1892" y="865" width="186" height="38" as="geometry" />
        </mxCell>
        <mxCell id="zUYq9ko0ZrBH7gSQxbFc-27" value="" style="shape=image;verticalLabelPosition=bottom;labelBackgroundColor=default;verticalAlign=top;aspect=fixed;imageAspect=0;image=https://cdn-icons-png.flaticon.com/512/3916/3916593.png;" vertex="1" parent="zUYq9ko0ZrBH7gSQxbFc-26">
          <mxGeometry y="4.5" width="29" height="29" as="geometry" />
        </mxCell>
        <mxCell id="zUYq9ko0ZrBH7gSQxbFc-28" value="Bookmarks" style="text;strokeColor=none;fillColor=none;html=1;align=left;verticalAlign=middle;whiteSpace=wrap;rounded=0;fontSize=16;fontColor=#999999;fontStyle=1" vertex="1" parent="zUYq9ko0ZrBH7gSQxbFc-26">
          <mxGeometry x="56" width="130" height="38" as="geometry" />
        </mxCell>
        <mxCell id="zUYq9ko0ZrBH7gSQxbFc-29" value="" style="group" vertex="1" connectable="0" parent="1">
          <mxGeometry x="1888" y="809" width="190" height="38" as="geometry" />
        </mxCell>
        <mxCell id="zUYq9ko0ZrBH7gSQxbFc-30" value="" style="shape=image;verticalLabelPosition=bottom;labelBackgroundColor=default;verticalAlign=top;aspect=fixed;imageAspect=0;image=https://www.iconpacks.net/icons/2/free-favourite-icon-2765-thumb.png;" vertex="1" parent="zUYq9ko0ZrBH7gSQxbFc-29">
          <mxGeometry y="0.5" width="37" height="37" as="geometry" />
        </mxCell>
        <mxCell id="zUYq9ko0ZrBH7gSQxbFc-31" value="Favourites" style="text;strokeColor=none;fillColor=none;html=1;align=left;verticalAlign=middle;whiteSpace=wrap;rounded=0;fontSize=16;fontColor=#999999;fontStyle=1" vertex="1" parent="zUYq9ko0ZrBH7gSQxbFc-29">
          <mxGeometry x="60" width="130" height="38" as="geometry" />
        </mxCell>
        <mxCell id="zUYq9ko0ZrBH7gSQxbFc-32" value="" style="group" vertex="1" connectable="0" parent="1">
          <mxGeometry x="1889" y="752" width="189" height="38" as="geometry" />
        </mxCell>
        <mxCell id="zUYq9ko0ZrBH7gSQxbFc-33" value="" style="shape=image;verticalLabelPosition=bottom;labelBackgroundColor=default;verticalAlign=top;aspect=fixed;imageAspect=0;image=https://cdn-icons-png.flaticon.com/512/5167/5167053.png;" vertex="1" parent="zUYq9ko0ZrBH7gSQxbFc-32">
          <mxGeometry y="1.5" width="35" height="35" as="geometry" />
        </mxCell>
        <mxCell id="zUYq9ko0ZrBH7gSQxbFc-34" value="Direct message" style="text;strokeColor=none;fillColor=none;html=1;align=left;verticalAlign=middle;whiteSpace=wrap;rounded=0;fontSize=16;fontColor=#999999;fontStyle=1" vertex="1" parent="zUYq9ko0ZrBH7gSQxbFc-32">
          <mxGeometry x="59" width="130" height="38" as="geometry" />
        </mxCell>
        <mxCell id="zUYq9ko0ZrBH7gSQxbFc-35" value="" style="group" vertex="1" connectable="0" parent="1">
          <mxGeometry x="1892.5" y="676" width="185.5" height="38" as="geometry" />
        </mxCell>
        <mxCell id="zUYq9ko0ZrBH7gSQxbFc-36" value="" style="shape=image;verticalLabelPosition=bottom;labelBackgroundColor=default;verticalAlign=top;aspect=fixed;imageAspect=0;image=https://cdn-icons-png.flaticon.com/512/6633/6633232.png;container=0;" vertex="1" parent="zUYq9ko0ZrBH7gSQxbFc-35">
          <mxGeometry y="5" width="28" height="28" as="geometry" />
        </mxCell>
        <mxCell id="zUYq9ko0ZrBH7gSQxbFc-37" value="Trending" style="text;strokeColor=none;fillColor=none;html=1;align=left;verticalAlign=middle;whiteSpace=wrap;rounded=0;fontSize=16;fontColor=#999999;fontStyle=1;container=0;" vertex="1" parent="zUYq9ko0ZrBH7gSQxbFc-35">
          <mxGeometry x="55.5" width="130" height="38" as="geometry" />
        </mxCell>
        <mxCell id="zUYq9ko0ZrBH7gSQxbFc-38" value="" style="group" vertex="1" connectable="0" parent="1">
          <mxGeometry x="1888" y="627" width="190" height="38" as="geometry" />
        </mxCell>
        <mxCell id="zUYq9ko0ZrBH7gSQxbFc-39" value="" style="shape=image;verticalLabelPosition=bottom;labelBackgroundColor=default;verticalAlign=top;aspect=fixed;imageAspect=0;image=https://icons.veryicon.com/png/o/miscellaneous/forestry-in-yiliang/group-people.png;" vertex="1" parent="zUYq9ko0ZrBH7gSQxbFc-38">
          <mxGeometry y="0.5" width="37" height="37" as="geometry" />
        </mxCell>
        <mxCell id="zUYq9ko0ZrBH7gSQxbFc-40" value="Local timelines" style="text;strokeColor=none;fillColor=none;html=1;align=left;verticalAlign=middle;whiteSpace=wrap;rounded=0;fontSize=16;fontColor=#999999;fontStyle=1" vertex="1" parent="zUYq9ko0ZrBH7gSQxbFc-38">
          <mxGeometry x="60" width="130" height="38" as="geometry" />
        </mxCell>
        <mxCell id="zUYq9ko0ZrBH7gSQxbFc-41" value="" style="group" vertex="1" connectable="0" parent="1">
          <mxGeometry x="1892" y="577" width="186" height="38" as="geometry" />
        </mxCell>
        <mxCell id="zUYq9ko0ZrBH7gSQxbFc-42" value="" style="shape=image;verticalLabelPosition=bottom;labelBackgroundColor=default;verticalAlign=top;aspect=fixed;imageAspect=0;image=https://uxwing.com/wp-content/themes/uxwing/download/location-travel-map/globe-line-icon.png;" vertex="1" parent="zUYq9ko0ZrBH7gSQxbFc-41">
          <mxGeometry y="4.5" width="29" height="29" as="geometry" />
        </mxCell>
        <mxCell id="zUYq9ko0ZrBH7gSQxbFc-43" value="Global timelines" style="text;strokeColor=none;fillColor=none;html=1;align=left;verticalAlign=middle;whiteSpace=wrap;rounded=0;fontSize=16;fontColor=#999999;fontStyle=1" vertex="1" parent="zUYq9ko0ZrBH7gSQxbFc-41">
          <mxGeometry x="56" width="130" height="38" as="geometry" />
        </mxCell>
        <mxCell id="zUYq9ko0ZrBH7gSQxbFc-44" value="" style="group" vertex="1" connectable="0" parent="1">
          <mxGeometry x="1861" y="524.75" width="217" height="44" as="geometry" />
        </mxCell>
        <mxCell id="zUYq9ko0ZrBH7gSQxbFc-45" value="Home" style="text;strokeColor=none;fillColor=none;html=1;align=left;verticalAlign=middle;whiteSpace=wrap;rounded=0;fontSize=16;fontColor=#3D4FAD;fontStyle=1" vertex="1" parent="zUYq9ko0ZrBH7gSQxbFc-44">
          <mxGeometry x="87" y="3" width="130" height="38" as="geometry" />
        </mxCell>
        <mxCell id="zUYq9ko0ZrBH7gSQxbFc-46" value="" style="rounded=0;whiteSpace=wrap;html=1;fontSize=16;fillColor=#3D4FAD;strokeColor=none;" vertex="1" parent="zUYq9ko0ZrBH7gSQxbFc-44">
          <mxGeometry width="8" height="44" as="geometry" />
        </mxCell>
        <mxCell id="zUYq9ko0ZrBH7gSQxbFc-47" value="" style="shape=image;verticalLabelPosition=bottom;labelBackgroundColor=default;verticalAlign=top;aspect=fixed;imageAspect=0;image=data:image/svg+xml,PHN2ZyB4bWxucz0iaHR0cDovL3d3dy53My5vcmcvMjAwMC9zdmciIHZpZXdCb3g9IjAgMCA2NCA2NCIgZGF0YS1uYW1lPSJMYXllciAxIiBpZD0iTGF5ZXJfMSI+PHBhdGggZmlsbD0iIzNkNGZhZCIgZD0iTTQzLjc2LDUyLjZoLTlWNDMuNDlhMi44NCwyLjg0LDAsMCwwLTIuNTMtMy4wNmgtLjVhMi44NCwyLjg0LDAsMCwwLTIuNTMsMy4wNlY1Mi42aC05YTQuNjQsNC42NCwwLDAsMS00LjM2LTQuODdWMzcuMkgxMS42MUwzMiwxMy42bDYuMzQsNy4zNGEyLjg3LDIuODcsMCwwLDEsMi40MS0xLjQxLDMuMywzLjMsMCwwLDEsMywzLjUyVjI3LjJsOC42MywxMEg0OC4xMlY0Ny43M0E0LjY0LDQuNjQsMCwwLDEsNDMuNzYsNTIuNlptLTgtMWg4YTMuNjQsMy42NCwwLDAsMCwzLjM2LTMuODdWMzYuMmgwVjQ3LjczYTMuNjQsMy42NCwwLDAsMS0zLjM2LDMuODdabS0xOC45LTMuODdhMy42NCwzLjY0LDAsMCwwLDMuMzYsMy44N2g4VjQzLjQ5YTMuODMsMy44MywwLDAsMSwzLjUzLTQuMDZoLjVhMy44MywzLjgzLDAsMCwxLDMuNTMsNC4wNiwzLjgzLDMuODMsMCwwLDAtMy41My00LjA2aC0uNWEzLjgzLDMuODMsMCwwLDAtMy41Myw0LjA2VjUxLjZoLThBMy42NCwzLjY0LDAsMCwxLDE2Ljg4LDQ3LjczWm0xOS45LDIuODdoN2EyLjY2LDIuNjYsMCwwLDAsMi4zNi0yLjg3VjM1LjJINDhsLTYuMy03LjI5LDAtLjVWMjMuMDVjMC0uODctLjU0LTEuNTItMS0xLjUycy0xLC42Ny0xLDEuNDRsLS4xLDIuNTRMMzIsMTYuNjYsMTYsMzUuMmgxLjlWNDcuNzNhMi42NiwyLjY2LDAsMCwwLDIuMzYsMi44N2g3VjQzLjQ5YTQuODIsNC44MiwwLDAsMSw0LjUzLTUuMDZoLjVhNC44Miw0LjgyLDAsMCwxLDQuNTMsNS4wNlptLTIzLTE0LjRoMFptMjktOC42NHYwWk0zOC42MywyMi44bC4xMi4xM2EyLjgsMi44LDAsMCwxLC4xNi0uODhabTIuMTEtMi4yN1ptMCwwaDBaIi8+PC9zdmc+;" vertex="1" parent="zUYq9ko0ZrBH7gSQxbFc-44">
          <mxGeometry x="26.875" y="3.375" width="37.25" height="37.25" as="geometry" />
        </mxCell>
        <mxCell id="zUYq9ko0ZrBH7gSQxbFc-48" value="" style="group" vertex="1" connectable="0" parent="1">
          <mxGeometry x="1923" y="317" width="80" height="80" as="geometry" />
        </mxCell>
        <mxCell id="zUYq9ko0ZrBH7gSQxbFc-49" value="" style="ellipse;whiteSpace=wrap;html=1;aspect=fixed;fontSize=16;fillColor=#3D4FAD;strokeColor=#1A1A1A;" vertex="1" parent="zUYq9ko0ZrBH7gSQxbFc-48">
          <mxGeometry width="80" height="80" as="geometry" />
        </mxCell>
        <mxCell id="zUYq9ko0ZrBH7gSQxbFc-50" value="" style="shape=image;verticalLabelPosition=bottom;labelBackgroundColor=default;verticalAlign=top;aspect=fixed;imageAspect=0;image=https://cdn-icons-png.flaticon.com/512/147/147144.png;" vertex="1" parent="zUYq9ko0ZrBH7gSQxbFc-48">
          <mxGeometry x="2.5" y="2.5" width="75" height="75" as="geometry" />
        </mxCell>
        <mxCell id="zUYq9ko0ZrBH7gSQxbFc-128" value="" style="group" vertex="1" connectable="0" parent="1">
          <mxGeometry x="2150" y="875.19" width="886.5" height="68.12" as="geometry" />
        </mxCell>
        <mxCell id="zUYq9ko0ZrBH7gSQxbFc-129" value="" style="group" vertex="1" connectable="0" parent="zUYq9ko0ZrBH7gSQxbFc-128">
          <mxGeometry y="13.25" width="72" height="52" as="geometry" />
        </mxCell>
        <mxCell id="zUYq9ko0ZrBH7gSQxbFc-130" value="" style="ellipse;whiteSpace=wrap;html=1;aspect=fixed;fontSize=16;fillColor=#3D4FAD;strokeColor=#1A1A1A;" vertex="1" parent="zUYq9ko0ZrBH7gSQxbFc-129">
          <mxGeometry width="47" height="47" as="geometry" />
        </mxCell>
        <mxCell id="zUYq9ko0ZrBH7gSQxbFc-131" value="" style="shape=image;verticalLabelPosition=bottom;labelBackgroundColor=default;verticalAlign=top;aspect=fixed;imageAspect=0;image=https://cdn-icons-png.flaticon.com/512/147/147133.png;" vertex="1" parent="zUYq9ko0ZrBH7gSQxbFc-129">
          <mxGeometry x="2.5" y="2.5" width="42" height="42" as="geometry" />
        </mxCell>
        <mxCell id="zUYq9ko0ZrBH7gSQxbFc-132" value="Moi" style="text;html=1;align=left;verticalAlign=middle;whiteSpace=wrap;rounded=0;fontSize=16;fontColor=#FFFFFF;fontStyle=1" vertex="1" parent="zUYq9ko0ZrBH7gSQxbFc-128">
          <mxGeometry x="50" y="8.25" width="40" height="22.75" as="geometry" />
        </mxCell>
        <mxCell id="zUYq9ko0ZrBH7gSQxbFc-133" value="@Moi" style="text;html=1;strokeColor=none;fillColor=none;align=left;verticalAlign=middle;whiteSpace=wrap;rounded=0;fontSize=10;fontColor=#999999;" vertex="1" parent="zUYq9ko0ZrBH7gSQxbFc-128">
          <mxGeometry x="50" y="24.75" width="40" height="18" as="geometry" />
        </mxCell>
        <mxCell id="zUYq9ko0ZrBH7gSQxbFc-134" value="Hi here is an exemple toot, by this way you can see how they are displayed" style="text;strokeColor=none;fillColor=none;html=1;align=left;verticalAlign=middle;whiteSpace=wrap;rounded=0;fontSize=16;fontColor=#FFFFFF;" vertex="1" parent="zUYq9ko0ZrBH7gSQxbFc-128">
          <mxGeometry x="50" y="46.25" width="540" height="21.87" as="geometry" />
        </mxCell>
        <mxCell id="zUYq9ko0ZrBH7gSQxbFc-135" value="5d" style="text;html=1;strokeColor=none;fillColor=none;align=left;verticalAlign=middle;whiteSpace=wrap;rounded=0;fontSize=16;fontColor=#999999;fontStyle=0" vertex="1" parent="zUYq9ko0ZrBH7gSQxbFc-128">
          <mxGeometry x="864" width="22.5" height="30" as="geometry" />
        </mxCell>
        <mxCell id="zUYq9ko0ZrBH7gSQxbFc-51" value="" style="shape=image;verticalLabelPosition=bottom;labelBackgroundColor=default;verticalAlign=top;aspect=fixed;imageAspect=0;image=https://cdn-icons-png.flaticon.com/512/3682/3682321.png;" vertex="1" parent="1">
          <mxGeometry x="3000" y="926" width="35" height="35" as="geometry" />
        </mxCell>
        <mxCell id="zUYq9ko0ZrBH7gSQxbFc-86" value="" style="rounded=1;whiteSpace=wrap;html=1;fontSize=16;fillColor=#303030;strokeColor=none;arcSize=17;" vertex="1" parent="1">
          <mxGeometry x="2149" y="921.5" width="831" height="44" as="geometry" />
        </mxCell>
        <mxCell id="zUYq9ko0ZrBH7gSQxbFc-87" value="Type a toot here" style="text;html=1;align=left;verticalAlign=middle;whiteSpace=wrap;rounded=0;fontSize=16;fontColor=#999999;" vertex="1" parent="1">
          <mxGeometry x="2160" y="928.5" width="178" height="30" as="geometry" />
        </mxCell>
        <mxCell id="zUYq9ko0ZrBH7gSQxbFc-92" value="Account banner" style="rounded=1;whiteSpace=wrap;html=1;fontSize=16;fillColor=#7EA6E0;arcSize=7;" vertex="1" parent="1">
          <mxGeometry x="2140" y="306.25" width="920" height="93.75" as="geometry" />
        </mxCell>
        <mxCell id="zUYq9ko0ZrBH7gSQxbFc-93" value="" style="group" vertex="1" connectable="0" parent="1">
          <mxGeometry x="2150" y="370" width="80" height="80" as="geometry" />
        </mxCell>
        <mxCell id="zUYq9ko0ZrBH7gSQxbFc-94" value="" style="ellipse;whiteSpace=wrap;html=1;aspect=fixed;fontSize=16;fillColor=#3D4FAD;strokeColor=#1A1A1A;" vertex="1" parent="zUYq9ko0ZrBH7gSQxbFc-93">
          <mxGeometry width="80" height="80" as="geometry" />
        </mxCell>
        <mxCell id="zUYq9ko0ZrBH7gSQxbFc-95" value="" style="shape=image;verticalLabelPosition=bottom;labelBackgroundColor=default;verticalAlign=top;aspect=fixed;imageAspect=0;image=https://cdn-icons-png.flaticon.com/512/147/147144.png;" vertex="1" parent="zUYq9ko0ZrBH7gSQxbFc-93">
          <mxGeometry x="2.5" y="2.5" width="75" height="75" as="geometry" />
        </mxCell>
        <mxCell id="zUYq9ko0ZrBH7gSQxbFc-96" value="@Hpn4" style="text;html=1;align=left;verticalAlign=middle;whiteSpace=wrap;rounded=0;fontSize=16;fontColor=#FFFFFF;" vertex="1" parent="1">
          <mxGeometry x="2230" y="389.87" width="60" height="30" as="geometry" />
        </mxCell>
        <mxCell id="zUYq9ko0ZrBH7gSQxbFc-97" value="@Hpn4" style="text;html=1;strokeColor=none;fillColor=none;align=left;verticalAlign=middle;whiteSpace=wrap;rounded=0;fontSize=10;fontColor=#999999;" vertex="1" parent="1">
          <mxGeometry x="2234" y="416.5" width="40" height="18" as="geometry" />
        </mxCell>
        <mxCell id="zUYq9ko0ZrBH7gSQxbFc-102" value="" style="group;fontStyle=1" vertex="1" connectable="0" parent="1">
          <mxGeometry x="2140" y="494.75" width="920" height="45.25" as="geometry" />
        </mxCell>
        <mxCell id="zUYq9ko0ZrBH7gSQxbFc-98" value="" style="rounded=0;whiteSpace=wrap;html=1;fontSize=16;strokeColor=none;fillColor=#333333;" vertex="1" parent="zUYq9ko0ZrBH7gSQxbFc-102">
          <mxGeometry width="920" height="45.25" as="geometry" />
        </mxCell>
        <mxCell id="zUYq9ko0ZrBH7gSQxbFc-99" value="Toots" style="text;html=1;align=center;verticalAlign=middle;whiteSpace=wrap;rounded=0;fontSize=16;fontColor=#3D4FAD;fontStyle=1" vertex="1" parent="zUYq9ko0ZrBH7gSQxbFc-102">
          <mxGeometry x="50" y="6.75" width="180" height="30" as="geometry" />
        </mxCell>
        <mxCell id="zUYq9ko0ZrBH7gSQxbFc-100" value="Followers" style="text;html=1;align=center;verticalAlign=middle;whiteSpace=wrap;rounded=0;fontSize=16;fontColor=#999999;" vertex="1" parent="zUYq9ko0ZrBH7gSQxbFc-102">
          <mxGeometry x="330" y="6.75" width="180" height="30" as="geometry" />
        </mxCell>
        <mxCell id="zUYq9ko0ZrBH7gSQxbFc-101" value="Following" style="text;html=1;align=center;verticalAlign=middle;whiteSpace=wrap;rounded=0;fontSize=16;fontColor=#999999;" vertex="1" parent="zUYq9ko0ZrBH7gSQxbFc-102">
          <mxGeometry x="660" y="7.6200000000000045" width="180" height="30" as="geometry" />
        </mxCell>
        <mxCell id="zUYq9ko0ZrBH7gSQxbFc-103" value="" style="triangle;whiteSpace=wrap;html=1;fontSize=16;rotation=-90;strokeColor=none;fillColor=#3D4FAD;" vertex="1" parent="zUYq9ko0ZrBH7gSQxbFc-102">
          <mxGeometry x="135" y="33" width="10" height="15" as="geometry" />
        </mxCell>
        <mxCell id="zUYq9ko0ZrBH7gSQxbFc-111" value="" style="group" vertex="1" connectable="0" parent="1">
          <mxGeometry x="2150" y="550" width="886.5" height="68.12" as="geometry" />
        </mxCell>
        <mxCell id="zUYq9ko0ZrBH7gSQxbFc-104" value="" style="group" vertex="1" connectable="0" parent="zUYq9ko0ZrBH7gSQxbFc-111">
          <mxGeometry y="13.25" width="72" height="52" as="geometry" />
        </mxCell>
        <mxCell id="zUYq9ko0ZrBH7gSQxbFc-105" value="" style="ellipse;whiteSpace=wrap;html=1;aspect=fixed;fontSize=16;fillColor=#3D4FAD;strokeColor=#1A1A1A;" vertex="1" parent="zUYq9ko0ZrBH7gSQxbFc-104">
          <mxGeometry width="47" height="47" as="geometry" />
        </mxCell>
        <mxCell id="zUYq9ko0ZrBH7gSQxbFc-106" value="" style="shape=image;verticalLabelPosition=bottom;labelBackgroundColor=default;verticalAlign=top;aspect=fixed;imageAspect=0;image=https://cdn-icons-png.flaticon.com/512/147/147133.png;" vertex="1" parent="zUYq9ko0ZrBH7gSQxbFc-104">
          <mxGeometry x="2.5" y="2.5" width="42" height="42" as="geometry" />
        </mxCell>
        <mxCell id="zUYq9ko0ZrBH7gSQxbFc-107" value="Moi" style="text;html=1;align=left;verticalAlign=middle;whiteSpace=wrap;rounded=0;fontSize=16;fontColor=#FFFFFF;fontStyle=1" vertex="1" parent="zUYq9ko0ZrBH7gSQxbFc-111">
          <mxGeometry x="50" y="8.25" width="40" height="22.75" as="geometry" />
        </mxCell>
        <mxCell id="zUYq9ko0ZrBH7gSQxbFc-108" value="@Moi" style="text;html=1;strokeColor=none;fillColor=none;align=left;verticalAlign=middle;whiteSpace=wrap;rounded=0;fontSize=10;fontColor=#999999;" vertex="1" parent="zUYq9ko0ZrBH7gSQxbFc-111">
          <mxGeometry x="50" y="24.75" width="40" height="18" as="geometry" />
        </mxCell>
        <mxCell id="zUYq9ko0ZrBH7gSQxbFc-109" value="Hi here is an exemple toot, by this way you can see how they are displayed" style="text;strokeColor=none;fillColor=none;html=1;align=left;verticalAlign=middle;whiteSpace=wrap;rounded=0;fontSize=16;fontColor=#FFFFFF;" vertex="1" parent="zUYq9ko0ZrBH7gSQxbFc-111">
          <mxGeometry x="50" y="46.25" width="540" height="21.87" as="geometry" />
        </mxCell>
        <mxCell id="zUYq9ko0ZrBH7gSQxbFc-110" value="5d" style="text;html=1;strokeColor=none;fillColor=none;align=left;verticalAlign=middle;whiteSpace=wrap;rounded=0;fontSize=16;fontColor=#999999;fontStyle=0" vertex="1" parent="zUYq9ko0ZrBH7gSQxbFc-111">
          <mxGeometry x="864" width="22.5" height="30" as="geometry" />
        </mxCell>
        <mxCell id="zUYq9ko0ZrBH7gSQxbFc-112" value="" style="group" vertex="1" connectable="0" parent="1">
          <mxGeometry x="2150" y="631" width="886.5" height="68.12" as="geometry" />
        </mxCell>
        <mxCell id="zUYq9ko0ZrBH7gSQxbFc-113" value="" style="group" vertex="1" connectable="0" parent="zUYq9ko0ZrBH7gSQxbFc-112">
          <mxGeometry y="13.25" width="72" height="52" as="geometry" />
        </mxCell>
        <mxCell id="zUYq9ko0ZrBH7gSQxbFc-114" value="" style="ellipse;whiteSpace=wrap;html=1;aspect=fixed;fontSize=16;fillColor=#3D4FAD;strokeColor=#1A1A1A;" vertex="1" parent="zUYq9ko0ZrBH7gSQxbFc-113">
          <mxGeometry width="47" height="47" as="geometry" />
        </mxCell>
        <mxCell id="zUYq9ko0ZrBH7gSQxbFc-115" value="" style="shape=image;verticalLabelPosition=bottom;labelBackgroundColor=default;verticalAlign=top;aspect=fixed;imageAspect=0;image=https://cdn-icons-png.flaticon.com/512/147/147133.png;" vertex="1" parent="zUYq9ko0ZrBH7gSQxbFc-113">
          <mxGeometry x="2.5" y="2.5" width="42" height="42" as="geometry" />
        </mxCell>
        <mxCell id="zUYq9ko0ZrBH7gSQxbFc-116" value="Moi" style="text;html=1;align=left;verticalAlign=middle;whiteSpace=wrap;rounded=0;fontSize=16;fontColor=#FFFFFF;fontStyle=1" vertex="1" parent="zUYq9ko0ZrBH7gSQxbFc-112">
          <mxGeometry x="50" y="8.25" width="40" height="22.75" as="geometry" />
        </mxCell>
        <mxCell id="zUYq9ko0ZrBH7gSQxbFc-117" value="@Moi" style="text;html=1;strokeColor=none;fillColor=none;align=left;verticalAlign=middle;whiteSpace=wrap;rounded=0;fontSize=10;fontColor=#999999;" vertex="1" parent="zUYq9ko0ZrBH7gSQxbFc-112">
          <mxGeometry x="50" y="24.75" width="40" height="18" as="geometry" />
        </mxCell>
        <mxCell id="zUYq9ko0ZrBH7gSQxbFc-118" value="Hi here is an exemple toot, by this way you can see how they are displayed" style="text;strokeColor=none;fillColor=none;html=1;align=left;verticalAlign=middle;whiteSpace=wrap;rounded=0;fontSize=16;fontColor=#FFFFFF;" vertex="1" parent="zUYq9ko0ZrBH7gSQxbFc-112">
          <mxGeometry x="50" y="46.25" width="540" height="21.87" as="geometry" />
        </mxCell>
        <mxCell id="zUYq9ko0ZrBH7gSQxbFc-119" value="5d" style="text;html=1;strokeColor=none;fillColor=none;align=left;verticalAlign=middle;whiteSpace=wrap;rounded=0;fontSize=16;fontColor=#999999;fontStyle=0" vertex="1" parent="zUYq9ko0ZrBH7gSQxbFc-112">
          <mxGeometry x="864" width="22.5" height="30" as="geometry" />
        </mxCell>
        <mxCell id="zUYq9ko0ZrBH7gSQxbFc-120" value="" style="group" vertex="1" connectable="0" parent="1">
          <mxGeometry x="2150" y="713" width="886.5" height="68.12" as="geometry" />
        </mxCell>
        <mxCell id="zUYq9ko0ZrBH7gSQxbFc-121" value="" style="group" vertex="1" connectable="0" parent="zUYq9ko0ZrBH7gSQxbFc-120">
          <mxGeometry y="13.25" width="72" height="52" as="geometry" />
        </mxCell>
        <mxCell id="zUYq9ko0ZrBH7gSQxbFc-122" value="" style="ellipse;whiteSpace=wrap;html=1;aspect=fixed;fontSize=16;fillColor=#3D4FAD;strokeColor=#1A1A1A;" vertex="1" parent="zUYq9ko0ZrBH7gSQxbFc-121">
          <mxGeometry width="47" height="47" as="geometry" />
        </mxCell>
        <mxCell id="zUYq9ko0ZrBH7gSQxbFc-123" value="" style="shape=image;verticalLabelPosition=bottom;labelBackgroundColor=default;verticalAlign=top;aspect=fixed;imageAspect=0;image=https://cdn-icons-png.flaticon.com/512/147/147133.png;" vertex="1" parent="zUYq9ko0ZrBH7gSQxbFc-121">
          <mxGeometry x="2.5" y="2.5" width="42" height="42" as="geometry" />
        </mxCell>
        <mxCell id="zUYq9ko0ZrBH7gSQxbFc-124" value="Moi" style="text;html=1;align=left;verticalAlign=middle;whiteSpace=wrap;rounded=0;fontSize=16;fontColor=#FFFFFF;fontStyle=1" vertex="1" parent="zUYq9ko0ZrBH7gSQxbFc-120">
          <mxGeometry x="50" y="8.25" width="40" height="22.75" as="geometry" />
        </mxCell>
        <mxCell id="zUYq9ko0ZrBH7gSQxbFc-125" value="@Moi" style="text;html=1;strokeColor=none;fillColor=none;align=left;verticalAlign=middle;whiteSpace=wrap;rounded=0;fontSize=10;fontColor=#999999;" vertex="1" parent="zUYq9ko0ZrBH7gSQxbFc-120">
          <mxGeometry x="50" y="24.75" width="40" height="18" as="geometry" />
        </mxCell>
        <mxCell id="zUYq9ko0ZrBH7gSQxbFc-126" value="Hi here is an exemple toot, by this way you can see how they are displayed" style="text;strokeColor=none;fillColor=none;html=1;align=left;verticalAlign=middle;whiteSpace=wrap;rounded=0;fontSize=16;fontColor=#FFFFFF;" vertex="1" parent="zUYq9ko0ZrBH7gSQxbFc-120">
          <mxGeometry x="50" y="46.25" width="540" height="21.87" as="geometry" />
        </mxCell>
        <mxCell id="zUYq9ko0ZrBH7gSQxbFc-127" value="5d" style="text;html=1;strokeColor=none;fillColor=none;align=left;verticalAlign=middle;whiteSpace=wrap;rounded=0;fontSize=16;fontColor=#999999;fontStyle=0" vertex="1" parent="zUYq9ko0ZrBH7gSQxbFc-120">
          <mxGeometry x="864" width="22.5" height="30" as="geometry" />
        </mxCell>
        <mxCell id="zUYq9ko0ZrBH7gSQxbFc-136" value="" style="group" vertex="1" connectable="0" parent="1">
          <mxGeometry x="2150" y="794" width="886.5" height="68.12" as="geometry" />
        </mxCell>
        <mxCell id="zUYq9ko0ZrBH7gSQxbFc-137" value="" style="group" vertex="1" connectable="0" parent="zUYq9ko0ZrBH7gSQxbFc-136">
          <mxGeometry y="13.25" width="72" height="52" as="geometry" />
        </mxCell>
        <mxCell id="zUYq9ko0ZrBH7gSQxbFc-138" value="" style="ellipse;whiteSpace=wrap;html=1;aspect=fixed;fontSize=16;fillColor=#3D4FAD;strokeColor=#1A1A1A;" vertex="1" parent="zUYq9ko0ZrBH7gSQxbFc-137">
          <mxGeometry width="47" height="47" as="geometry" />
        </mxCell>
        <mxCell id="zUYq9ko0ZrBH7gSQxbFc-139" value="" style="shape=image;verticalLabelPosition=bottom;labelBackgroundColor=default;verticalAlign=top;aspect=fixed;imageAspect=0;image=https://cdn-icons-png.flaticon.com/512/147/147133.png;" vertex="1" parent="zUYq9ko0ZrBH7gSQxbFc-137">
          <mxGeometry x="2.5" y="2.5" width="42" height="42" as="geometry" />
        </mxCell>
        <mxCell id="zUYq9ko0ZrBH7gSQxbFc-140" value="Moi" style="text;html=1;align=left;verticalAlign=middle;whiteSpace=wrap;rounded=0;fontSize=16;fontColor=#FFFFFF;fontStyle=1" vertex="1" parent="zUYq9ko0ZrBH7gSQxbFc-136">
          <mxGeometry x="50" y="8.25" width="40" height="22.75" as="geometry" />
        </mxCell>
        <mxCell id="zUYq9ko0ZrBH7gSQxbFc-141" value="@Moi" style="text;html=1;strokeColor=none;fillColor=none;align=left;verticalAlign=middle;whiteSpace=wrap;rounded=0;fontSize=10;fontColor=#999999;" vertex="1" parent="zUYq9ko0ZrBH7gSQxbFc-136">
          <mxGeometry x="50" y="24.75" width="40" height="18" as="geometry" />
        </mxCell>
        <mxCell id="zUYq9ko0ZrBH7gSQxbFc-142" value="Hi here is an exemple toot, by this way you can see how they are displayed" style="text;strokeColor=none;fillColor=none;html=1;align=left;verticalAlign=middle;whiteSpace=wrap;rounded=0;fontSize=16;fontColor=#FFFFFF;" vertex="1" parent="zUYq9ko0ZrBH7gSQxbFc-136">
          <mxGeometry x="50" y="46.25" width="540" height="21.87" as="geometry" />
        </mxCell>
        <mxCell id="zUYq9ko0ZrBH7gSQxbFc-143" value="5d" style="text;html=1;strokeColor=none;fillColor=none;align=left;verticalAlign=middle;whiteSpace=wrap;rounded=0;fontSize=16;fontColor=#999999;fontStyle=0" vertex="1" parent="zUYq9ko0ZrBH7gSQxbFc-136">
          <mxGeometry x="864" width="22.5" height="30" as="geometry" />
        </mxCell>
        <mxCell id="zUYq9ko0ZrBH7gSQxbFc-156" value="" style="group" vertex="1" connectable="0" parent="1">
          <mxGeometry x="2224" y="454" width="306" height="30" as="geometry" />
        </mxCell>
        <mxCell id="zUYq9ko0ZrBH7gSQxbFc-153" value="" style="group" vertex="1" connectable="0" parent="zUYq9ko0ZrBH7gSQxbFc-156">
          <mxGeometry width="66" height="30" as="geometry" />
        </mxCell>
        <mxCell id="zUYq9ko0ZrBH7gSQxbFc-144" value="50" style="text;strokeColor=none;fillColor=none;html=1;align=center;verticalAlign=middle;whiteSpace=wrap;rounded=0;fontSize=16;fontStyle=1;labelBackgroundColor=none;fontColor=#FFFFFF;" vertex="1" parent="zUYq9ko0ZrBH7gSQxbFc-153">
          <mxGeometry width="26" height="30" as="geometry" />
        </mxCell>
        <mxCell id="zUYq9ko0ZrBH7gSQxbFc-145" value="Toots" style="text;html=1;align=center;verticalAlign=middle;whiteSpace=wrap;rounded=0;fontSize=16;fontColor=#999999;fontStyle=0" vertex="1" parent="zUYq9ko0ZrBH7gSQxbFc-153">
          <mxGeometry x="26" width="40" height="30" as="geometry" />
        </mxCell>
        <mxCell id="zUYq9ko0ZrBH7gSQxbFc-154" value="" style="group" vertex="1" connectable="0" parent="zUYq9ko0ZrBH7gSQxbFc-156">
          <mxGeometry x="95" width="100" height="30" as="geometry" />
        </mxCell>
        <mxCell id="zUYq9ko0ZrBH7gSQxbFc-146" value="18" style="text;strokeColor=none;fillColor=none;html=1;align=center;verticalAlign=middle;whiteSpace=wrap;rounded=0;fontSize=16;fontStyle=1;labelBackgroundColor=none;fontColor=#FFFFFF;" vertex="1" parent="zUYq9ko0ZrBH7gSQxbFc-154">
          <mxGeometry width="26" height="30" as="geometry" />
        </mxCell>
        <mxCell id="zUYq9ko0ZrBH7gSQxbFc-147" value="Followers" style="text;html=1;align=center;verticalAlign=middle;whiteSpace=wrap;rounded=0;fontSize=16;fontColor=#999999;fontStyle=0" vertex="1" parent="zUYq9ko0ZrBH7gSQxbFc-154">
          <mxGeometry x="26" width="74" height="30" as="geometry" />
        </mxCell>
        <mxCell id="zUYq9ko0ZrBH7gSQxbFc-155" value="" style="group" vertex="1" connectable="0" parent="zUYq9ko0ZrBH7gSQxbFc-156">
          <mxGeometry x="206" width="100" height="30" as="geometry" />
        </mxCell>
        <mxCell id="zUYq9ko0ZrBH7gSQxbFc-151" value="18" style="text;strokeColor=none;fillColor=none;html=1;align=center;verticalAlign=middle;whiteSpace=wrap;rounded=0;fontSize=16;fontStyle=1;labelBackgroundColor=none;fontColor=#FFFFFF;" vertex="1" parent="zUYq9ko0ZrBH7gSQxbFc-155">
          <mxGeometry width="26" height="30" as="geometry" />
        </mxCell>
        <mxCell id="zUYq9ko0ZrBH7gSQxbFc-152" value="Following" style="text;html=1;align=center;verticalAlign=middle;whiteSpace=wrap;rounded=0;fontSize=16;fontColor=#999999;fontStyle=0" vertex="1" parent="zUYq9ko0ZrBH7gSQxbFc-155">
          <mxGeometry x="26" width="74" height="30" as="geometry" />
        </mxCell>
      </root>
    </mxGraphModel>
  </diagram>
</mxfile>
